<svg width="261" height="217" viewBox="0 0 261 217" fill="none" xmlns="http://www.w3.org/2000/svg">
<path d="M79.0905 41.3905C99.4101 40.9909 118.991 32.4861 135.434 20.7778C208.954 -40.4076 314.821 48.3902 227.802 124.414C185.078 163.941 144.665 138.846 97.219 136.648C1.24837 136.202 3.97898 70.215 17.0925 52.2063C30.4258 34.564 59.5101 42.243 79.0905 41.3905Z" fill="#5BC0BE"/>
<path opacity="0.9" d="M79.0905 41.3905C99.4101 40.9909 118.991 32.4861 135.434 20.7778C208.954 -40.4076 314.821 48.3902 227.802 124.414C185.078 163.941 144.665 138.846 97.219 136.648C1.24837 136.202 3.97898 70.215 17.0925 52.2063C30.4258 34.564 59.5101 42.243 79.0905 41.3905Z" fill="#FAFAFA"/>
<path d="M129.5 216.755C200.817 216.755 258.631 213.38 258.631 209.216C258.631 205.052 200.817 201.677 129.5 201.677C58.1831 201.677 0.369263 205.052 0.369263 209.216C0.369263 213.38 58.1831 216.755 129.5 216.755Z" fill="#F5F5F5"/>
<path d="M8.14148 171.48H171.238L182.96 70.0152H19.8697L8.14148 171.48Z" fill="#5BC0BE"/>
<path opacity="0.4" d="M8.14148 171.48H171.238L182.96 70.0152H19.8697L8.14148 171.48Z" fill="#FAFAFA"/>
<path d="M203.273 175.283H40.1761L19.8698 70.0152H182.96L203.273 175.283Z" fill="#5BC0BE"/>
<path opacity="0.6" d="M203.273 175.283H40.1761L19.8698 70.0152H182.96L203.273 175.283Z" fill="#FAFAFA"/>
<path d="M197.026 169.635H44.2387L27.8351 84.5806H180.622L197.026 169.635Z" fill="#FAFAFA"/>
<g opacity="0.5">
<path d="M56.1334 105.207H40.1561L37.0725 89.2226H53.0499L56.1334 105.207Z" fill="#5BC0BE"/>
<path d="M176.26 105.207H160.276L157.199 89.2226H173.176L176.26 105.207Z" fill="#5BC0BE"/>
<path d="M156.233 105.207H140.256L137.172 89.2226H153.156L156.233 105.207Z" fill="#5BC0BE"/>
<path d="M136.213 105.207H120.236L117.152 89.2226H133.136L136.213 105.207Z" fill="#5BC0BE"/>
<path d="M116.193 105.207H100.216L97.1324 89.2226H113.11L116.193 105.207Z" fill="#5BC0BE"/>
<path d="M96.1734 105.207H80.196L77.1124 89.2226H93.0898L96.1734 105.207Z" fill="#5BC0BE"/>
<path d="M76.1534 105.207H60.1761L57.0925 89.2226H73.0698L76.1534 105.207Z" fill="#5BC0BE"/>
<path opacity="0.5" d="M59.9763 125.133H43.9989L40.9153 109.156H56.8927L59.9763 125.133Z" fill="#5BC0BE"/>
<path d="M180.103 125.133H164.125L161.042 109.156H177.019L180.103 125.133Z" fill="#5BC0BE"/>
<path opacity="0.5" d="M160.083 125.133H144.105L141.022 109.156H156.999L160.083 125.133Z" fill="#5BC0BE"/>
<path d="M140.063 125.133H124.079L121.002 109.156H136.979L140.063 125.133Z" fill="#5BC0BE"/>
<path d="M120.036 125.133H104.059L100.975 109.156H116.959L120.036 125.133Z" fill="#5BC0BE"/>
<path d="M100.016 125.133H84.0388L80.9553 109.156H96.9326L100.016 125.133Z" fill="#5BC0BE"/>
<path d="M79.9962 125.133H64.0189L60.9353 109.156H76.9126L79.9962 125.133Z" fill="#5BC0BE"/>
<path d="M63.8191 145.06H47.8418L44.7582 129.083H60.7355L63.8191 145.06Z" fill="#5BC0BE"/>
<path d="M183.946 145.06H167.968L164.885 129.083H180.862L183.946 145.06Z" fill="#5BC0BE"/>
<path d="M163.926 145.06H147.948L144.865 129.083H160.842L163.926 145.06Z" fill="#5BC0BE"/>
<path d="M143.906 145.06H127.928L124.845 129.083H140.822L143.906 145.06Z" fill="#5BC0BE"/>
<path d="M123.886 145.06H107.902L104.825 129.083H120.802L123.886 145.06Z" fill="#5BC0BE"/>
<path d="M103.859 145.06H87.8817L84.7981 129.083H100.782L103.859 145.06Z" fill="#5BC0BE"/>
<path d="M83.8391 145.06H67.8617L64.7781 129.083H80.7555L83.8391 145.06Z" fill="#5BC0BE"/>
<path d="M67.6619 164.993H51.6846L48.601 149.009H64.585L67.6619 164.993Z" fill="#5BC0BE"/>
<path d="M187.788 164.993H171.811L168.727 149.009H184.705L187.788 164.993Z" fill="#5BC0BE"/>
<path d="M167.768 164.993H151.791L148.707 149.009H164.685L167.768 164.993Z" fill="#5BC0BE"/>
<path d="M147.748 164.993H131.771L128.687 149.009H144.665L147.748 164.993Z" fill="#5BC0BE"/>
<path d="M127.728 164.993H111.751L108.668 149.009H124.645L127.728 164.993Z" fill="#5BC0BE"/>
<path d="M107.708 164.993H91.7245L88.6476 149.009H104.625L107.708 164.993Z" fill="#5BC0BE"/>
<path opacity="0.5" d="M87.6885 164.993H71.7045L68.6276 149.009H84.6049L87.6885 164.993Z" fill="#5BC0BE"/>
</g>
<path d="M39.9829 77.2413L39.7765 76.1823C41.6613 76.1823 42.7135 73.3585 42.0675 70.0152C41.4215 66.6718 39.2836 63.8413 37.4055 63.8413C35.5274 63.8413 34.4685 66.6718 35.1078 70.0152H34.0555C33.2697 65.9592 34.6549 62.7891 37.1991 62.7891C39.7432 62.7891 42.3539 65.9592 43.1331 70.0152C43.9123 74.0711 42.5271 77.2413 39.9829 77.2413Z" fill="#263238"/>
<path d="M55.7538 77.2413L55.5474 76.1823C57.4322 76.1823 58.4844 73.3585 57.8384 70.0152C57.1924 66.6718 55.0545 63.8413 53.1764 63.8413C51.2983 63.8413 50.2394 66.6718 50.8787 70.0152H49.8264C49.0406 65.9592 50.4258 62.7891 52.97 62.7891C55.5141 62.7891 58.1248 65.9592 58.904 70.0152C59.6832 74.0711 58.298 77.2413 55.7538 77.2413Z" fill="#263238"/>
<path d="M71.558 77.2413L71.3516 76.1823C73.2363 76.1823 74.2886 73.3585 73.6426 70.0152C72.9966 66.6718 70.8587 63.8413 68.9806 63.8413C67.1025 63.8413 66.0369 66.6718 66.6829 70.0152H65.564C64.7781 65.9592 66.1634 62.7891 68.7075 62.7891C71.2517 62.7891 73.8624 65.9592 74.6416 70.0152C75.4208 74.0711 74.0688 77.2413 71.558 77.2413Z" fill="#263238"/>
<path d="M87.2889 77.2413L87.0891 76.1823C88.9739 76.1823 90.0262 73.3585 89.3802 70.0152C88.7341 66.6718 86.5963 63.8413 84.7182 63.8413C82.84 63.8413 81.7811 66.6718 82.4271 70.0152H81.3682C80.589 65.9592 81.9743 62.7891 84.5184 62.7891C87.0625 62.7891 89.6666 65.9592 90.4524 70.0152C91.2383 74.0711 89.8397 77.2413 87.2889 77.2413Z" fill="#263238"/>
<path d="M103.06 77.2413L102.86 76.1823C104.745 76.1823 105.797 73.3585 105.151 70.0152C104.505 66.6718 102.367 63.8413 100.489 63.8413C98.6109 63.8413 97.552 66.6718 98.198 70.0152H97.1391C96.3598 65.9592 97.7451 62.7891 100.289 62.7891C102.833 62.7891 105.437 65.9592 106.223 70.0152C107.009 74.0711 105.611 77.2413 103.06 77.2413Z" fill="#263238"/>
<path d="M118.844 77.2413L118.644 76.1823C120.529 76.1823 121.581 73.3585 120.935 70.0152C120.289 66.6718 118.151 63.8413 116.273 63.8413C114.395 63.8413 113.336 66.6718 113.982 70.0152H112.923C112.144 65.9592 113.523 62.7891 116.073 62.7891C118.624 62.7891 121.222 65.9592 122.007 70.0152C122.793 74.0711 121.381 77.2413 118.844 77.2413Z" fill="#263238"/>
<path d="M134.602 77.2413L134.402 76.1823C136.287 76.1823 137.339 73.3585 136.693 70.0152C136.047 66.6718 133.909 63.8413 132.031 63.8413C130.153 63.8413 129.094 66.6718 129.74 70.0152H128.681C127.902 65.9592 129.28 62.7891 131.831 62.7891C134.382 62.7891 136.979 65.9592 137.765 70.0152C138.551 74.0711 137.152 77.2413 134.602 77.2413Z" fill="#263238"/>
<path d="M150.372 77.2413L150.173 76.1823C152.057 76.1823 153.11 73.3585 152.464 70.0152C151.818 66.6718 149.68 63.8413 147.802 63.8413C145.924 63.8413 144.865 66.6718 145.511 70.0152H144.452C143.672 65.9592 145.051 62.7891 147.602 62.7891C150.153 62.7891 152.75 65.9592 153.536 70.0152C154.322 74.0711 152.917 77.2413 150.372 77.2413Z" fill="#263238"/>
<path d="M166.13 77.2413L165.93 76.1823C167.815 76.1823 168.867 73.3585 168.221 70.0152C167.575 66.6718 165.437 63.8413 163.559 63.8413C161.681 63.8413 160.622 66.6718 161.268 70.0152H160.209C159.43 65.9592 160.809 62.7891 163.359 62.7891C165.91 62.7891 168.508 65.9592 169.287 70.0152C170.066 74.0711 168.687 77.2413 166.13 77.2413Z" fill="#263238"/>
<path d="M97.9916 102.956H41.9676L38.884 86.9782H94.908L97.9916 102.956Z" fill="#5BC0BE"/>
<path d="M121.868 122.889H105.884L102.807 106.905H118.784L121.868 122.889Z" fill="#5BC0BE"/>
<path d="M171.858 143.348L170.992 142.596C169.215 141.04 167.237 139.729 165.111 138.7L165.664 137.068C167.644 138.026 169.508 139.208 171.218 140.591C174.168 136.217 178.031 132.534 182.54 129.795L183.732 131.42C179.142 134.21 175.254 138.017 172.37 142.549L171.858 143.348Z" fill="#5BC0BE"/>
<path d="M116.007 109.549H114.562L112.144 113.925L108.048 109.549H106.603L111.611 114.897L108.661 120.238H110.113L112.524 115.869L116.62 120.238H118.071L113.056 114.897L116.007 109.549Z" fill="#FAFAFA"/>
<path d="M145.624 147.824L148.288 161.683H134.435L131.771 147.824H145.631M146.49 146.765H130.506L133.589 162.749H149.573L146.496 146.765H146.49Z" fill="#5BC0BE"/>
<path d="M105.677 142.816H69.6799L66.5963 126.838H102.594L105.677 142.816Z" fill="#263238"/>
<path d="M80.882 133.212C80.9779 133.583 80.9856 133.972 80.9045 134.346C80.8235 134.721 80.6559 135.072 80.4151 135.37C80.1743 135.668 79.8671 135.906 79.518 136.065C79.1689 136.223 78.7875 136.297 78.4045 136.282C77.5396 136.25 76.7101 135.931 76.0469 135.375C75.3836 134.819 74.9243 134.058 74.7415 133.212C74.647 132.841 74.6404 132.453 74.7221 132.079C74.8037 131.705 74.9714 131.355 75.2119 131.057C75.4523 130.759 75.7589 130.521 76.1073 130.362C76.4557 130.203 76.8363 130.128 77.219 130.142C78.0835 130.175 78.9124 130.495 79.5755 131.05C80.2385 131.606 80.6981 132.367 80.882 133.212Z" fill="#FAFAFA"/>
<path d="M81.6213 136.116C81.2824 136.586 80.8332 136.967 80.3129 137.224C79.7927 137.48 79.2174 137.605 78.6376 137.588C77.3157 137.556 76.0528 137.033 75.0945 136.122C74.5015 136.443 74.025 136.943 73.7332 137.55C73.4413 138.158 73.349 138.842 73.4694 139.506H84.5517C84.3512 138.756 83.9833 138.061 83.4758 137.474C82.9682 136.887 82.3342 136.423 81.6213 136.116Z" fill="#FAFAFA"/>
<path d="M99.6765 133.831H87.4221L87.0825 132.066H99.3369L99.6765 133.831Z" fill="#FAFAFA"/>
<path d="M96.2999 137.581H88.1481L87.8084 135.816H95.9603L96.2999 137.581Z" fill="#FAFAFA"/>
<path d="M160.642 88.47C163.799 88.47 168.268 88.9296 171.644 91.134C172.258 91.4957 172.793 91.9768 173.217 92.5488C173.642 93.1207 173.947 93.772 174.115 94.464C174.708 97.0814 173.316 99.9385 171.778 101.49C169.347 103.941 165.564 105.486 161.122 105.793C160.616 105.833 160.096 105.853 159.583 105.853C156.455 105.825 153.36 105.211 150.459 104.041C147.602 102.902 144.572 101.377 143.719 98.4067C143.497 97.7223 143.428 96.9971 143.519 96.2832C143.61 95.5692 143.858 94.8843 144.245 94.2775C144.748 93.5074 145.415 92.8571 146.197 92.3728C149.887 90.0905 154.092 88.7735 158.424 88.5433C159.164 88.4967 159.91 88.47 160.642 88.47ZM160.442 87.4444C159.65 87.4444 158.884 87.4444 158.165 87.5243C153.681 87.7601 149.33 89.1206 145.511 91.4803C144.633 92.0269 143.885 92.7588 143.32 93.6248C142.868 94.3448 142.579 95.155 142.475 95.9985C142.37 96.8419 142.452 97.6981 142.713 98.5066C143.712 101.957 147.129 103.748 150.233 104.98C153.266 106.206 156.504 106.848 159.776 106.872C160.316 106.872 160.849 106.872 161.381 106.818C165.604 106.512 169.813 105.073 172.584 102.276C175.354 99.479 177.119 93.5449 172.091 90.2882C168.701 88.097 164.265 87.4444 160.436 87.4444H160.442Z" fill="#263238"/>
<path d="M220.755 204.501L225.524 203.235L223.2 192.02L218.431 193.292L220.755 204.501Z" fill="#FFD1CC"/>
<path d="M225.677 202.356L220.409 204.088C220.319 204.113 220.243 204.172 220.196 204.253C220.15 204.334 220.138 204.43 220.163 204.521L221.281 208.776C221.352 208.996 221.506 209.179 221.711 209.285C221.915 209.391 222.154 209.411 222.374 209.342C224.199 208.676 225.038 208.31 227.355 207.551C228.781 207.078 232.231 206.019 234.195 205.373C236.16 204.727 235.474 202.802 234.581 202.896C230.585 203.335 228.248 202.982 226.589 202.383C226.297 202.269 225.975 202.26 225.677 202.356Z" fill="#263238"/>
<path opacity="0.2" d="M218.431 193.292L223.2 192.02L224.398 197.801L219.623 199.073L218.431 193.292Z" fill="black"/>
<path d="M206.203 78.9995C206.203 78.9995 212.863 119.193 214.861 133.212C217.026 148.563 225.131 194.744 225.131 194.744L217.139 197.767C217.139 197.767 204.385 152.366 200.862 137.441C197.032 121.237 188.601 78.9995 188.601 78.9995H206.203Z" fill="#263238"/>
<path opacity="0.3" d="M195.501 95.483C198.911 104.001 199.297 118.48 197.912 124.414C195.82 114.67 193.423 103.015 191.578 93.9512C192.237 91.6269 193.436 90.3016 195.501 95.483Z" fill="black"/>
<path d="M216.779 198.9L226.057 196.116L225.79 192.319L214.748 195.55L216.779 198.9Z" fill="#263238"/>
<path d="M227.608 202.629C227.174 202.756 226.728 202.837 226.276 202.869C226.255 202.871 226.233 202.867 226.213 202.857C226.193 202.848 226.176 202.834 226.163 202.816C226.152 202.796 226.146 202.775 226.146 202.752C226.146 202.73 226.152 202.708 226.163 202.689C226.276 202.536 227.309 201.191 227.955 201.224C228.028 201.229 228.098 201.253 228.16 201.292C228.222 201.332 228.272 201.386 228.308 201.45C228.38 201.544 228.423 201.657 228.434 201.775C228.445 201.893 228.422 202.011 228.368 202.116C228.183 202.372 227.914 202.553 227.608 202.629ZM226.55 202.629C227.449 202.516 228.055 202.289 228.201 202.003C228.231 201.935 228.242 201.861 228.233 201.787C228.225 201.714 228.198 201.643 228.155 201.584C228.138 201.551 228.113 201.524 228.083 201.504C228.052 201.485 228.018 201.473 227.981 201.47C227.635 201.437 226.982 202.09 226.55 202.616V202.629Z" fill="#5BC0BE"/>
<path d="M226.33 202.862C226.313 202.869 226.294 202.869 226.276 202.862C226.258 202.859 226.24 202.852 226.225 202.84C226.209 202.828 226.198 202.813 226.19 202.796C226.19 202.736 225.617 201.424 225.937 200.798C225.979 200.719 226.038 200.651 226.109 200.598C226.181 200.546 226.263 200.509 226.35 200.491C226.445 200.463 226.547 200.469 226.639 200.506C226.731 200.544 226.807 200.611 226.856 200.698C227.136 201.171 226.756 202.383 226.383 202.809C226.363 202.849 226.35 202.862 226.33 202.862ZM226.33 200.751C226.244 200.782 226.173 200.844 226.13 200.924C226.018 201.46 226.081 202.018 226.31 202.516C226.634 202.018 226.754 201.414 226.643 200.831C226.609 200.771 226.55 200.704 226.383 200.738L226.33 200.751Z" fill="#5BC0BE"/>
<path d="M205.191 37.621C205.384 37.934 205.65 38.3735 205.897 38.7532L206.656 39.952C207.182 40.7445 207.702 41.537 208.254 42.3163C209.34 43.868 210.486 45.3732 211.671 46.8051C212.828 48.2051 214.078 49.5246 215.414 50.7545C216.622 51.883 217.964 52.8582 219.41 53.6582L218.358 53.3585C219.389 53.5704 220.446 53.631 221.495 53.5384C222.067 53.4851 222.653 53.4118 223.253 53.3053C223.852 53.1987 224.458 53.0522 225.071 52.8857C226.332 52.5421 227.571 52.1218 228.781 51.6269C229.4 51.3739 230.019 51.1141 230.639 50.8344C231.258 50.5547 231.891 50.2417 232.43 49.9886L232.61 49.902C233.127 49.6548 233.721 49.6225 234.261 49.8122C234.802 50.002 235.245 50.3983 235.494 50.9143C235.68 51.312 235.743 51.7568 235.673 52.1904C235.602 52.6241 235.403 53.0265 235.101 53.3452C234.495 53.9713 233.962 54.4708 233.363 54.9969C232.763 55.523 232.164 55.9892 231.531 56.4554C230.243 57.3961 228.88 58.2292 227.455 58.9463C225.952 59.7017 224.368 60.2848 222.733 60.6845C221.856 60.8862 220.966 61.0308 220.069 61.1174C219.128 61.1972 218.181 61.1972 217.239 61.1174C216.971 61.091 216.709 61.026 216.46 60.9243L216.193 60.8111C213.992 59.8583 211.936 58.6006 210.086 57.0748C208.331 55.6598 206.699 54.1003 205.204 52.4128C203.745 50.7966 202.379 49.0977 201.115 47.3246C200.489 46.4366 199.885 45.5486 199.303 44.6606C199.017 44.201 198.731 43.7482 198.451 43.2753C198.171 42.8024 197.918 42.3629 197.612 41.7901C197.045 40.793 196.897 39.6115 197.201 38.5055C197.505 37.3996 198.236 36.4597 199.234 35.8927C200.231 35.3257 201.412 35.178 202.518 35.4822C203.624 35.7863 204.564 36.5173 205.131 37.5144L205.191 37.621Z" fill="#263238"/>
<path opacity="0.3" d="M209.293 49.8021C206.696 44.4741 202.267 44.7805 200.482 46.4255L200.988 47.1647C202.197 48.8783 203.5 50.5237 204.891 52.0931C206.315 53.7065 207.856 55.2135 209.5 56.602C210.019 57.0282 210.559 57.4478 211.105 57.8474C211.031 55.0733 210.415 52.3403 209.293 49.8021Z" fill="black"/>
<path d="M233.909 49.216L237.239 46.4388L239.237 50.7478C239.237 50.7478 234.275 54.2976 233.136 53.0455L233.003 51.4405C232.966 51.0243 233.028 50.6052 233.186 50.2182C233.343 49.8312 233.591 49.4876 233.909 49.216Z" fill="#FFD1CC"/>
<path d="M241.681 46.9649L242.727 50.2949L239.21 50.7278L237.226 46.4188L241.681 46.9649Z" fill="#FFD1CC"/>
<path d="M179.037 204.341H183.972L184.612 192.906H179.676L179.037 204.341Z" fill="#FFD1CC"/>
<path d="M184.232 203.768H178.684C178.638 203.766 178.591 203.774 178.548 203.79C178.504 203.806 178.465 203.83 178.431 203.862C178.397 203.893 178.369 203.931 178.35 203.974C178.33 204.016 178.32 204.061 178.318 204.108L178.045 208.497C178.045 208.727 178.136 208.949 178.298 209.114C178.46 209.278 178.68 209.372 178.911 209.376C180.842 209.342 181.768 209.229 184.205 209.229C185.704 209.229 189.84 209.382 191.911 209.382C193.982 209.382 193.909 207.331 193.05 207.145C189.107 206.319 186.476 205.147 185.058 204.074C184.825 203.881 184.534 203.773 184.232 203.768Z" fill="#263238"/>
<path opacity="0.2" d="M179.676 192.912H184.612L184.279 198.806H179.343L179.676 192.912Z" fill="black"/>
<path d="M196.56 78.9995C196.56 78.9995 196.133 121.897 195.334 136.036C194.455 151.514 186.396 197.381 186.396 197.381H177.352C177.352 197.381 181.295 152.759 180.749 137.441C180.156 120.791 179.796 78.9995 179.796 78.9995H196.56Z" fill="#263238"/>
<path d="M176.626 197.381H187.655L188.195 193.951L176.16 194.484L176.626 197.381Z" fill="#263238"/>
<path d="M185.977 204.627C185.528 204.617 185.081 204.559 184.645 204.454C184.623 204.45 184.602 204.439 184.586 204.423C184.57 204.407 184.559 204.386 184.555 204.364C184.551 204.342 184.553 204.319 184.562 204.298C184.571 204.277 184.586 204.26 184.605 204.248C184.765 204.134 186.157 203.182 186.763 203.422C186.831 203.448 186.891 203.491 186.938 203.547C186.984 203.603 187.016 203.67 187.029 203.741C187.06 203.849 187.064 203.963 187.039 204.072C187.015 204.182 186.963 204.283 186.889 204.367C186.627 204.563 186.303 204.655 185.977 204.627ZM184.978 204.287C185.864 204.461 186.516 204.434 186.743 204.208C186.793 204.153 186.827 204.086 186.843 204.013C186.858 203.94 186.853 203.865 186.829 203.795C186.824 203.758 186.809 203.724 186.785 203.696C186.762 203.668 186.731 203.647 186.696 203.635C186.376 203.508 185.551 203.921 184.978 204.287Z" fill="#5BC0BE"/>
<path d="M184.691 204.454C184.674 204.461 184.655 204.461 184.638 204.454C184.621 204.445 184.606 204.432 184.595 204.416C184.585 204.399 184.579 204.38 184.578 204.361C184.578 204.301 184.458 202.882 184.958 202.403C185.022 202.341 185.099 202.295 185.183 202.268C185.267 202.24 185.356 202.231 185.444 202.243C185.542 202.246 185.637 202.282 185.713 202.345C185.789 202.407 185.842 202.493 185.864 202.589C185.977 203.129 185.238 204.161 184.751 204.454C184.732 204.46 184.711 204.46 184.691 204.454ZM185.357 202.456C185.265 202.456 185.177 202.492 185.111 202.556C184.837 203.029 184.722 203.578 184.785 204.121C185.218 203.761 185.704 202.975 185.63 202.622C185.63 202.556 185.577 202.476 185.411 202.456H185.357Z" fill="#5BC0BE"/>
<path d="M204.125 38.8864C203.876 38.0536 203.406 37.3039 202.764 36.7175C202.123 36.131 201.334 35.7297 200.482 35.5564C199.265 35.2685 198.03 35.0572 196.786 34.9237C193.048 34.7104 189.302 34.7104 185.564 34.9237C183.606 35.0169 181.608 35.2567 180.016 35.4898H179.956C179.538 35.5486 179.135 35.6911 178.773 35.9087C178.411 36.1263 178.096 36.4146 177.847 36.7564C177.599 37.0981 177.422 37.4864 177.326 37.8981C177.231 38.3098 177.219 38.7365 177.292 39.1528C178.546 45.7767 179.367 52.4753 179.75 59.206C180.136 68.9762 179.61 76.6486 179.796 79.0062H206.203C207.808 55.1567 205.737 44.3209 204.125 38.8864Z" fill="#E6E6E6"/>
<path d="M186.31 34.4841C188.388 42.9157 190.306 64.2809 190.273 80.9842H179.11C178.911 78.4934 179.47 70.4081 179.064 60.1051C178.664 53.0221 177.807 45.9723 176.5 38.9996C176.424 38.5626 176.436 38.1148 176.535 37.6826C176.635 37.2504 176.82 36.8424 177.079 36.4825C177.338 36.1227 177.667 35.8183 178.045 35.5872C178.424 35.3561 178.845 35.203 179.284 35.1368H179.343C181.022 34.8904 183.126 34.6373 185.191 34.5374L186.31 34.4841Z" fill="#263238"/>
<path d="M205.484 39.0062C205.2 38.0857 204.683 37.2543 203.983 36.5927C203.282 35.931 202.423 35.4616 201.488 35.23C199.723 34.9526 197.944 34.7702 196.16 34.6839C198.271 42.0099 202.414 64.3276 201.182 80.9842H208.228C209.9 55.9892 207.056 43.575 205.484 39.0062Z" fill="#263238"/>
<path d="M246.643 62.0965L194.102 84.5806L187.788 69.902L240.336 47.4178L246.643 62.0965Z" fill="#5BC0BE"/>
<path d="M202.3 70.6279C202.539 71.1859 202.608 71.8022 202.496 72.399C202.385 72.9957 202.1 73.5461 201.676 73.9806C201.252 74.415 200.709 74.7141 200.115 74.84C199.521 74.9659 198.903 74.9129 198.339 74.6878C197.776 74.4626 197.291 74.0755 196.948 73.5752C196.604 73.0749 196.416 72.484 196.408 71.877C196.4 71.27 196.572 70.6743 196.903 70.1652C197.233 69.656 197.707 69.2561 198.265 69.0162C198.635 68.8567 199.034 68.7718 199.438 68.7665C199.841 68.7611 200.242 68.8354 200.617 68.9851C200.992 69.1348 201.333 69.357 201.622 69.6389C201.911 69.9208 202.142 70.2569 202.3 70.6279Z" fill="#FAFAFA"/>
<path d="M203.626 73.2253C203.43 73.8093 203.114 74.3454 202.696 74.7984C202.279 75.2514 201.771 75.6111 201.205 75.8538C200.639 76.0966 200.028 76.2169 199.412 76.207C198.796 76.197 198.19 76.057 197.632 75.7961C197.159 76.3332 196.839 76.9873 196.706 77.6903C196.572 78.3932 196.63 79.119 196.873 79.7921L207.062 75.4364C206.742 74.7927 206.253 74.2475 205.648 73.8584C205.043 73.4692 204.345 73.2505 203.626 73.2253Z" fill="#FAFAFA"/>
<path d="M239.17 55.5297L208.461 68.6699L207.768 67.0449L238.478 53.9047L239.17 55.5297Z" fill="#FAFAFA"/>
<path d="M236.886 60.5847L209.946 72.1131L209.247 70.4881L236.187 58.9596L236.886 60.5847Z" fill="#FAFAFA"/>
<path opacity="0.3" d="M182.56 47.551C182.374 41.95 178.238 39.8121 177.072 41.3173C177.021 41.3781 176.974 41.4427 176.933 41.5104C177.658 45.8261 178.544 51.7668 178.931 57.6209C180.895 56.4887 182.733 52.8724 182.56 47.551Z" fill="black"/>
<path d="M196.253 34.9103C192.99 34.1378 192.417 32.1198 192.637 29.902C192.689 29.3466 192.775 28.7949 192.897 28.2503L188.807 24.8537L185.804 22.3629C186.636 25.9793 187.575 32.566 185.138 34.9769C185.138 34.9769 187.136 38.3069 192.75 38.0139C197.432 37.7542 196.253 34.9103 196.253 34.9103Z" fill="#FFD1CC"/>
<path d="M190.506 40.9909C190.891 39.8811 191.519 38.871 192.344 38.0339C189.837 37.2114 187.557 35.8158 185.684 33.958L183.972 34.624C183.972 34.624 184.578 38.9729 190.506 40.9909Z" fill="#FAFAFA"/>
<path d="M195.074 40.245C194.333 39.3208 193.402 38.5667 192.344 38.0339C193.989 37.5677 194.628 34.231 194.628 34.231L196.233 34.564C196.233 34.564 199.197 38.913 195.074 40.245Z" fill="#FAFAFA"/>
<path opacity="0.2" d="M192.897 28.2503C192.775 28.7949 192.689 29.3466 192.637 29.902C191.112 29.5957 189.074 27.9706 188.861 26.4122C188.786 25.8962 188.768 25.3736 188.807 24.8537L192.897 28.2503Z" fill="black"/>
<path d="M194.801 10.4881C196.859 10.1152 199.257 12.273 198.131 16.6553C197.006 21.0376 191.658 11.0542 194.801 10.4881Z" fill="#263238"/>
<path d="M184.565 17.1614C185.61 21.9633 185.977 24.8204 188.814 27.0116C189.728 27.7328 190.822 28.1904 191.977 28.3349C193.133 28.4794 194.306 28.3053 195.369 27.8315C196.433 27.3576 197.347 26.602 198.012 25.6464C198.677 24.6908 199.068 23.5715 199.144 22.4095C199.517 17.9407 197.752 10.8411 192.697 9.48246C191.611 9.15877 190.459 9.12643 189.356 9.38867C188.254 9.65091 187.24 10.1985 186.416 10.9765C185.592 11.7545 184.987 12.7356 184.662 13.8212C184.338 14.9068 184.304 16.0587 184.565 17.1614Z" fill="#FFD1CC"/>
<path d="M186.496 22.3629C187.202 20.6979 187.828 16.0625 187.256 14.1378C189.553 14.0645 194.382 13.6383 196.393 11.4005C199.483 7.96398 195.407 3.90138 190.279 7.13814C186.949 9.22272 179.763 8.8098 180.955 11.1341C177.452 14.9903 181.388 19.3459 186.496 22.3629Z" fill="#263238"/>
<path d="M180.949 11.3073C180.924 11.3071 180.9 11.3016 180.879 11.2913C180.857 11.2809 180.837 11.2659 180.822 11.2474C180.396 10.7212 180.263 10.2817 180.409 9.91536C180.762 9.03624 182.594 8.79648 184.705 8.53008C186.703 8.277 188.914 7.99062 189.62 7.09152C189.652 7.0625 189.693 7.04642 189.736 7.04642C189.78 7.04642 189.821 7.0625 189.853 7.09152C189.869 7.10647 189.882 7.12452 189.89 7.14457C189.899 7.16461 189.903 7.18623 189.903 7.20807C189.903 7.22992 189.899 7.25153 189.89 7.27157C189.882 7.29162 189.869 7.30967 189.853 7.32462C189.06 8.33028 186.856 8.61 184.725 8.88306C182.88 9.12282 180.975 9.36258 180.729 10.0685C180.629 10.3216 180.729 10.6613 181.082 11.0809C181.112 11.112 181.129 11.1538 181.129 11.1974C181.129 11.241 181.112 11.2828 181.082 11.314C181.038 11.3271 180.991 11.3247 180.949 11.3073Z" fill="#263238"/>
<path d="M183.826 21.0376C184.399 21.9343 185.265 22.6049 186.277 22.9357C187.562 23.3219 188.001 22.1365 187.482 20.8844C187.009 19.7522 185.77 18.1871 184.565 18.3536C183.359 18.5201 183.1 19.912 183.826 21.0376Z" fill="#FFD1CC"/>
<path d="M191.438 17.641C191.498 18.0339 191.758 18.307 192.017 18.307C192.277 18.307 192.43 17.934 192.37 17.5411C192.31 17.1481 192.051 16.8751 191.791 16.8751C191.531 16.8751 191.378 17.248 191.438 17.641Z" fill="#263238"/>
<path d="M195.907 17.1082C195.967 17.5011 196.227 17.7742 196.486 17.7742C196.746 17.7742 196.906 17.3945 196.839 17.0016C196.773 16.6087 196.52 16.3356 196.267 16.3356C196.013 16.3356 195.847 16.7152 195.907 17.1082Z" fill="#263238"/>
<path d="M195.221 17.4745C195.882 18.6246 196.692 19.6817 197.632 20.618C197.386 20.8426 197.094 21.0105 196.777 21.1094C196.459 21.2084 196.123 21.2362 195.794 21.1907L195.221 17.4745Z" fill="#EDAAA3"/>
<path d="M194.342 22.4495C193.88 22.4557 193.421 22.368 192.994 22.1917C192.567 22.0154 192.181 21.7542 191.858 21.4238C191.848 21.4125 191.84 21.3992 191.835 21.3849C191.83 21.3705 191.828 21.3553 191.829 21.3402C191.83 21.325 191.834 21.3102 191.84 21.2966C191.847 21.2829 191.856 21.2707 191.868 21.2607C191.879 21.2506 191.892 21.2429 191.907 21.238C191.921 21.233 191.936 21.231 191.951 21.2319C191.966 21.2328 191.981 21.2367 191.995 21.2434C192.008 21.25 192.021 21.2593 192.031 21.2707C192.39 21.6204 192.823 21.8847 193.298 22.0438C193.773 22.203 194.278 22.2528 194.775 22.1897C194.79 22.1869 194.806 22.1873 194.821 22.1909C194.836 22.1944 194.851 22.2011 194.863 22.2105C194.876 22.2199 194.886 22.2318 194.894 22.2454C194.901 22.259 194.906 22.2741 194.908 22.2897C194.91 22.3045 194.909 22.3196 194.905 22.3341C194.901 22.3485 194.894 22.362 194.884 22.3738C194.875 22.3856 194.864 22.3954 194.85 22.4027C194.837 22.4099 194.823 22.4145 194.808 22.4162C194.653 22.4367 194.498 22.4479 194.342 22.4495Z" fill="#263238"/>
<path d="M189.979 16.3689C189.94 16.3662 189.901 16.3548 189.866 16.3356C189.839 16.3204 189.816 16.3 189.797 16.2757C189.778 16.2514 189.764 16.2235 189.756 16.1938C189.748 16.1641 189.746 16.1331 189.75 16.1025C189.754 16.072 189.764 16.0426 189.78 16.0159C189.951 15.6913 190.2 15.414 190.505 15.2084C190.809 15.0029 191.159 14.8753 191.525 14.8371C191.555 14.8353 191.586 14.8396 191.615 14.8496C191.644 14.8597 191.671 14.8754 191.693 14.8958C191.716 14.9163 191.735 14.941 191.748 14.9686C191.762 14.9963 191.769 15.0263 191.771 15.0569C191.773 15.0875 191.769 15.1182 191.758 15.1472C191.748 15.1761 191.733 15.2028 191.712 15.2257C191.692 15.2486 191.667 15.2672 191.639 15.2806C191.612 15.2939 191.582 15.3016 191.551 15.3033C191.264 15.3374 190.989 15.4414 190.751 15.6063C190.513 15.7711 190.319 15.9918 190.186 16.249C190.166 16.2858 190.136 16.3163 190.099 16.3374C190.063 16.3585 190.021 16.3694 189.979 16.3689Z" fill="#263238"/>
<path d="M197.912 15.3499C197.873 15.3501 197.835 15.3404 197.801 15.3217C197.767 15.3031 197.739 15.2761 197.718 15.2434C197.557 14.9915 197.339 14.78 197.083 14.6253C196.827 14.4706 196.538 14.3767 196.24 14.3509C196.178 14.3509 196.119 14.3264 196.075 14.2826C196.031 14.2389 196.007 14.1796 196.007 14.1178C196.007 14.056 196.031 13.9967 196.075 13.953C196.119 13.9093 196.178 13.8847 196.24 13.8847C196.615 13.9109 196.978 14.0238 197.302 14.2145C197.625 14.4052 197.9 14.6685 198.105 14.9836C198.138 15.036 198.15 15.0994 198.137 15.1602C198.125 15.2211 198.089 15.2748 198.038 15.31C198.001 15.3353 197.957 15.3491 197.912 15.3499Z" fill="#263238"/>
<path d="M183.166 42.3895L183.12 42.4628L183.006 42.6493L182.767 43.0688C182.6 43.3685 182.44 43.6749 182.281 43.9946C181.974 44.6606 181.674 45.3266 181.408 45.9926C180.876 47.3875 180.453 48.8214 180.143 50.2816C179.524 53.2969 179.342 56.3854 179.603 59.4524C179.639 60.0976 179.726 60.739 179.863 61.3705C180.015 62.0085 180.227 62.6306 180.496 63.2287C181.113 64.5947 181.87 65.8936 182.753 67.1048C184.698 69.7349 186.874 72.1866 189.254 74.4308L189.347 74.524C189.717 74.884 189.946 75.3649 189.992 75.8794C190.038 76.3939 189.898 76.9078 189.598 77.3278C189.297 77.7478 188.856 78.046 188.354 78.1682C187.852 78.2905 187.323 78.2286 186.863 77.9939C185.192 77.1401 183.593 76.1535 182.081 75.0435C180.542 73.9322 179.093 72.7031 177.745 71.3672C176.315 69.9451 175.063 68.3551 174.015 66.6319C173.441 65.6942 172.961 64.7014 172.584 63.6682C172.216 62.6233 171.946 61.5464 171.778 60.4514C171.433 58.5234 171.254 56.5693 171.245 54.6106C171.214 52.6276 171.364 50.6459 171.691 48.6899C172.021 46.7044 172.54 44.7552 173.243 42.869C173.601 41.9078 174.012 40.9673 174.475 40.0519C174.715 39.5857 174.961 39.1261 175.241 38.6666C175.381 38.4335 175.527 38.2004 175.68 37.9606L175.927 37.601L176.26 37.1414C176.965 36.2641 177.984 35.6959 179.101 35.5572C180.218 35.4185 181.345 35.7202 182.243 36.3984C183.141 37.0766 183.74 38.0779 183.912 39.1901C184.085 40.3023 183.817 41.4379 183.166 42.3562V42.3895Z" fill="#263238"/>
<path d="M190.665 74.4841L193.416 74.3375L190.226 79.6655C190.226 79.6655 185.777 79.0994 186.23 76.8284L186.849 76.1624C187.862 75.139 189.227 74.539 190.665 74.4841Z" fill="#FFD1CC"/>
<path d="M196.267 76.249L193.869 81.91L190.226 79.6855L193.416 74.3375L196.267 76.249Z" fill="#FFD1CC"/>
</svg>
