<svg width="287" height="175" viewBox="0 0 287 175" fill="none" xmlns="http://www.w3.org/2000/svg">
<path d="M17.9392 157.94H5.39926L3.67647 139.445H19.662L17.9392 157.94Z" fill="#C6D0D6"/>
<path d="M5.23757 63.9856C4.50869 64.7104 5.17545 66.4 6.62905 67.866C8.08266 69.3321 9.76404 70.0195 10.4971 69.2948C11.2301 68.5701 10.5592 66.8763 9.10971 65.4102C7.66024 63.9442 5.97058 63.2609 5.23757 63.9856Z" fill="#5BC0BE"/>
<path d="M12.7996 69.299C13.5244 70.032 15.214 69.3652 16.6801 67.9116C18.1461 66.458 18.8336 64.7725 18.1088 64.0436C17.3841 63.3147 15.6903 63.9774 14.2243 65.431C12.7582 66.8846 12.0749 68.5701 12.7996 69.299Z" fill="#5BC0BE"/>
<path d="M5.23757 72.9475C4.50869 73.6722 5.17545 75.3619 6.62905 76.8279C8.08266 78.2939 9.76404 78.9814 10.4971 78.2525C11.2301 77.5236 10.5592 75.8381 9.10971 74.3721C7.66024 72.9061 5.97058 72.2227 5.23757 72.9475Z" fill="#5BC0BE"/>
<path d="M14.2243 74.3969C12.7582 75.8464 12.0749 77.5319 12.7996 78.2649C13.5244 78.9979 15.214 78.327 16.6801 76.8776C18.1461 75.4281 18.8336 73.7384 18.1088 73.0054C17.3841 72.2724 15.6903 72.9433 14.2243 74.3969Z" fill="#5BC0BE"/>
<path d="M5.23757 81.9093C4.50869 82.634 5.17545 84.3237 6.62905 85.7897C8.08266 87.2558 9.76404 87.9432 10.4971 87.2143C11.2301 86.4855 10.5592 84.8 9.10971 83.3339C7.66024 81.8679 5.97058 81.1804 5.23757 81.9093Z" fill="#5BC0BE"/>
<path d="M14.2243 83.3794C12.7582 84.8289 12.0749 86.5144 12.7996 87.2474C13.5244 87.9804 15.214 87.3096 16.6801 85.8601C18.1461 84.4106 18.8336 82.721 18.1088 81.988C17.3841 81.2549 15.6903 81.9051 14.2243 83.3794Z" fill="#5BC0BE"/>
<path d="M11.7106 56.5105C10.6795 56.5105 9.95472 58.1671 9.94644 60.2377C9.93816 62.3084 10.6422 63.9649 11.6734 63.9649C12.7046 63.9649 13.4293 62.3084 13.4376 60.2377C13.4459 58.1671 12.7418 56.5188 11.7106 56.5105Z" fill="#5BC0BE"/>
<path d="M11.9298 64.8512H11.4122V148.655H11.9298V64.8512Z" fill="#0C0C0C"/>
<path d="M20.6762 141.669H2.6614L2.22656 137.01H21.111L20.6762 141.669ZM3.13351 141.151H20.2041L20.5436 137.527H2.79393L3.13351 141.151Z" fill="#0C0C0C"/>
<path d="M275.616 43.9416H263.077L261.354 31.1408H277.339L275.616 43.9416Z" fill="#C6D0D6"/>
<path d="M262.915 10.2933C262.187 11.0222 262.853 12.7119 264.307 14.1779C265.76 15.6439 267.442 16.3273 268.175 15.6025C268.908 14.8778 268.237 13.1881 266.788 11.7221C265.338 10.2561 263.648 9.56861 262.915 10.2933Z" fill="#0C0C0C"/>
<path d="M270.477 15.6149C271.202 16.3479 272.892 15.677 274.358 14.2276C275.824 12.7781 276.511 11.0884 275.787 10.3554C275.062 9.62241 273.368 10.2933 271.902 11.7428C270.436 13.1922 269.753 14.8819 270.477 15.6149Z" fill="#0C0C0C"/>
<path d="M262.915 19.2552C262.187 19.9799 262.853 21.6737 264.307 23.1397C265.76 24.6058 267.442 25.2891 268.175 24.5643C268.908 23.8396 268.237 22.1458 266.788 20.6798C265.338 19.2137 263.648 18.5304 262.915 19.2552Z" fill="#0C0C0C"/>
<path d="M271.902 20.7046C270.436 22.1582 269.753 23.8437 270.477 24.5768C271.202 25.3098 272.892 24.6389 274.358 23.1853C275.824 21.7317 276.511 20.0503 275.787 19.3173C275.062 18.5843 273.368 19.2552 271.902 20.7046Z" fill="#0C0C0C"/>
<path d="M269.396 2.82236C268.365 2.82236 267.64 4.47889 267.632 6.54955C267.624 8.62022 268.328 10.2767 269.359 10.2767C270.39 10.2767 271.115 8.62022 271.123 6.54955C271.132 4.47889 270.419 2.8265 269.396 2.82236Z" fill="#0C0C0C"/>
<path d="M269.608 11.163H269.09V40.3552H269.608V11.163Z" fill="#0C0C0C"/>
<path d="M278.354 33.8823H260.339L259.925 29.2233H278.809L278.354 33.8823ZM260.811 33.3647H277.882L278.221 29.741H260.472L260.811 33.3647Z" fill="#0C0C0C"/>
<path d="M284.487 42.3762H254.206V44.2812H284.487V42.3762Z" fill="#C6D0D6"/>
<path d="M280.793 43.2005L277.556 47.9855L277.985 48.2755L281.222 43.4906L280.793 43.2005Z" fill="#C6D0D6"/>
<path d="M277.89 43.5068H277.373V51.2262H277.89V43.5068Z" fill="#C6D0D6"/>
<path d="M257.909 43.1686L257.48 43.4584L260.715 48.2451L261.144 47.9552L257.909 43.1686Z" fill="#C6D0D6"/>
<path d="M261.325 43.5068H260.807V51.2262H261.325V43.5068Z" fill="#C6D0D6"/>
<path d="M202.476 85.1271C202.451 85.0513 202.442 84.9711 202.45 84.8915C202.457 84.812 202.481 84.735 202.52 84.6653C202.559 84.5955 202.612 84.5347 202.676 84.4866C202.74 84.4385 202.813 84.4041 202.891 84.3858C202.891 84.3858 201.263 84.8579 201.081 84.2201C200.932 83.7107 201.532 83.3919 201.532 83.3919C201.532 83.3919 200.132 83.806 199.946 83.1599C199.76 82.5139 201.164 82.1205 201.164 82.1205C201.079 82.1457 200.991 82.154 200.903 82.1447C200.816 82.1354 200.731 82.1088 200.654 82.0664C200.577 82.024 200.509 81.9666 200.454 81.8977C200.4 81.8288 200.359 81.7496 200.335 81.6649C200.079 80.7745 203.325 80.1119 203.325 80.1119C203.325 80.1119 201.806 79.7723 201.913 79.002C202.033 78.1448 208.047 78.7494 208.047 78.7494C208.37 78.8116 209.885 83.1558 209.823 83.4788L205.852 84.7626L205.533 84.8537C205.533 84.8537 202.766 85.798 202.476 85.1271Z" fill="#FFA87C"/>
<path d="M203.88 81.0825L200.825 81.9666L200.969 82.4639L204.024 81.5797L203.88 81.0825Z" fill="#0C0C0C"/>
<path d="M204.256 82.3335L201.2 83.2133L201.343 83.7108L204.399 82.8309L204.256 82.3335Z" fill="#0C0C0C"/>
<path d="M204.622 83.613L202.586 84.2025L202.729 84.6997L204.766 84.1103L204.622 83.613Z" fill="#0C0C0C"/>
<path d="M229.346 58.8794C226.223 71.2744 218.856 74.7158 207.492 77.7555C207.38 77.7887 209.463 84.303 209.563 84.2698C213.29 83.1931 234.671 81.2964 236.775 54.0837C236.788 54.0837 229.71 57.4423 229.346 58.8794Z" fill="#0C0C0C"/>
<path d="M243.439 53.2513C243.146 53.2584 242.855 53.2079 242.582 53.1025C242.309 52.9971 242.059 52.8389 241.847 52.637C241.635 52.4351 241.465 52.1934 241.347 51.9257C241.228 51.6581 241.164 51.3697 241.157 51.0771L241.049 49.7602L240.966 43.0222L245.422 42.9187L245.613 50.9694C245.62 51.262 245.569 51.5532 245.464 51.8262C245.358 52.0993 245.2 52.3489 244.998 52.5608C244.796 52.7727 244.555 52.9428 244.287 53.0613C244.019 53.1797 243.731 53.2443 243.439 53.2513Z" fill="#FFA87C"/>
<path d="M240.66 48.7746C236.846 48.729 235.127 44.8527 235.429 40.757C235.79 35.7874 238.577 31.6088 243.642 32.5861C252.869 34.3627 250.073 48.8781 240.66 48.7746Z" fill="#FFA87C"/>
<path d="M243.124 40.6824C243.112 40.7708 243.074 40.8536 243.014 40.9203C242.955 40.9869 242.877 41.0345 242.791 41.057C242.704 41.0795 242.613 41.0758 242.529 41.0465C242.445 41.0172 242.371 40.9636 242.317 40.8924C242.263 40.8212 242.232 40.7356 242.226 40.6465C242.221 40.5574 242.243 40.4687 242.288 40.3917C242.333 40.3147 242.4 40.2529 242.48 40.2139C242.56 40.175 242.651 40.1608 242.739 40.173C242.798 40.1806 242.855 40.1999 242.906 40.2298C242.958 40.2596 243.003 40.2994 243.039 40.3468C243.074 40.3943 243.1 40.4484 243.115 40.506C243.13 40.5636 243.133 40.6236 243.124 40.6824Z" fill="#0C0C0C"/>
<path d="M238.336 40.4753C238.324 40.5636 238.286 40.6463 238.227 40.713C238.168 40.7797 238.091 40.8274 238.004 40.8501C237.918 40.8728 237.827 40.8695 237.743 40.8406C237.659 40.8117 237.585 40.7585 237.531 40.6877C237.477 40.6169 237.445 40.5317 237.439 40.4427C237.433 40.3538 237.454 40.2652 237.498 40.188C237.543 40.1108 237.609 40.0485 237.689 40.009C237.769 39.9695 237.859 39.9545 237.947 39.9659C238.066 39.9824 238.174 40.0452 238.247 40.1406C238.32 40.2359 238.352 40.3562 238.336 40.4753Z" fill="#0C0C0C"/>
<path d="M243.869 40.0653C243.764 39.8365 243.607 39.6348 243.412 39.4755C243.217 39.3161 242.988 39.2034 242.743 39.146C242.535 39.1169 242.324 39.1395 242.128 39.2117C241.931 39.284 241.755 39.4037 241.616 39.5601L241.252 39.1915C241.45 38.9785 241.696 38.8164 241.97 38.7191C242.244 38.6218 242.538 38.592 242.825 38.6324C243.153 38.7009 243.46 38.8451 243.722 39.0537C243.984 39.2623 244.193 39.5293 244.333 39.8334L243.869 40.0653Z" fill="#0C0C0C"/>
<path d="M240.407 42.7158L238.623 42.6081L238.747 39.5642C238.682 39.4039 238.578 39.2626 238.444 39.1533C238.31 39.0439 238.151 38.9702 237.981 38.9389C237.757 38.9386 237.537 38.9928 237.34 39.0967C237.142 39.2006 236.972 39.3511 236.846 39.5352L236.432 39.2122C236.611 38.958 236.852 38.7528 237.131 38.6154C237.41 38.4779 237.719 38.4126 238.03 38.4253C238.298 38.4682 238.549 38.5802 238.76 38.7502C238.97 38.9201 239.133 39.1422 239.231 39.3944L239.26 39.4524L239.153 42.1236L240.428 42.1981L240.407 42.7158Z" fill="#0C0C0C"/>
<path d="M242.515 31.3272C234.713 31.6667 234.539 35.8453 238.564 37.0753C239.985 37.4894 246.06 36.0234 246.636 38.3798C247.05 39.9742 246.528 42.8193 244.718 42.5212C241.327 41.9289 235.852 42.107 235.218 43.7636C234.257 46.3395 236.523 49.2591 239.923 49.8554C243.323 50.4518 247.965 48.6627 249.166 43.1879C249.953 39.6057 250.591 30.9751 242.515 31.3272Z" fill="#0C0C0C"/>
<path d="M248.54 39.5063L248.267 43.2334H248.325C248.77 43.1852 249.184 42.9807 249.493 42.6562C249.801 42.3316 249.985 41.9082 250.011 41.461C250.037 41.0139 249.903 40.5721 249.634 40.2142C249.365 39.8563 248.977 39.6054 248.54 39.5063Z" fill="#FFA87C"/>
<path d="M240.2 44.451C239.678 44.4471 239.171 44.2742 238.755 43.9582L239.062 43.544C239.274 43.7069 239.519 43.8229 239.779 43.8843C240.04 43.9457 240.31 43.9511 240.573 43.9002C240.878 43.8392 241.167 43.7161 241.422 43.5387C241.677 43.3613 241.892 43.1334 242.056 42.869L242.499 43.1423C242.296 43.4663 242.03 43.7456 241.716 43.9635C241.402 44.1813 241.047 44.3331 240.673 44.4096C240.517 44.4375 240.359 44.4513 240.2 44.451Z" fill="#FFA87C"/>
<path d="M273.069 152.622L277.418 148.684L269.781 129.497L260.915 132.119L273.069 152.622Z" fill="#FFA87C"/>
<path d="M268.051 158.217L279.671 153.285L277.418 148.684L267.43 157.774L268.051 158.217Z" fill="#FFA87C"/>
<path d="M272.768 152.916L278.458 150.225L279.953 153.426L268.051 158.217L267.43 157.774L272.768 152.916Z" fill="#0C0C0C"/>
<path d="M267.202 157.87L269.666 155.513L270.229 156.727L279.729 152.569L280.214 153.571L267.549 158.511L267.202 157.87Z" fill="#0C0C0C"/>
<path d="M272.42 154.387L273.782 153.447C273.782 153.447 273.066 150.842 272.411 151.078C271.653 151.347 272.42 154.387 272.42 154.387Z" fill="#0C0C0C"/>
<path d="M267.76 147.901L276.85 144.12L266.949 118.196L264.911 82.5801C264.911 82.5801 258.587 73.0302 246.863 73.4692L249.104 93.7327L253.531 118.212L267.76 147.901Z" fill="#C6D0D6"/>
<path d="M241.728 155.277L247.638 152.672L248.425 132.951L240.767 137.358L241.728 155.277Z" fill="#FFA87C"/>
<path d="M235.45 158.151L248.069 157.778L247.638 152.672L235.032 157.513L235.45 158.151Z" fill="#FFA87C"/>
<path d="M241.77 154.925L248.052 154.486L248.28 158.01L235.45 158.151L235.032 157.513L241.77 154.925Z" fill="#0C0C0C"/>
<path d="M234.787 157.517L237.939 156.217L238.022 157.551L248.383 157.128L248.47 158.242H234.878L234.787 157.517Z" fill="#0C0C0C"/>
<path d="M240.908 156.167L242.523 155.791C242.523 155.791 242.801 153.103 242.109 153.082C241.301 153.061 240.908 156.167 240.908 156.167Z" fill="#0C0C0C"/>
<path d="M249.017 151.384L240.072 151.281L234.042 81.6691C234.042 81.6691 240.192 73.4775 246.739 73.4775L249.12 74.9436L249.017 151.384Z" fill="#C6D0D6"/>
<path d="M249.273 151.384H248.756L248.863 93.9067L245.306 92.3496L245.513 91.8733L249.381 93.5671V93.7369L249.273 151.384Z" fill="#0C0C0C"/>
<path d="M262.808 92.5856C261.617 92.5785 260.447 92.2711 259.407 91.692C258.367 91.1129 257.49 90.2807 256.856 89.2725L257.3 89.0075C257.946 90.0455 258.871 90.881 259.97 91.4184C261.068 91.9559 262.295 92.1738 263.512 92.0472L263.574 92.5608C263.319 92.5841 263.063 92.5924 262.808 92.5856Z" fill="#0C0C0C"/>
<path d="M247.907 55.4586L239.781 55.8562L239.52 51.2179L247.157 50.6381L247.907 55.4586Z" fill="#FFA87C"/>
<path d="M259.548 58.9456C258.244 53.3507 252.674 49.6194 247.054 50.3151L246.607 50.3689C246.52 51.1349 246.173 51.8479 245.623 52.3885C245.074 52.929 244.355 53.2644 243.588 53.3383C243.488 53.3383 243.389 53.3383 243.289 53.359C242.543 53.3691 241.811 53.1619 241.18 52.7625C240.55 52.3632 240.05 51.7891 239.74 51.1102L238.647 51.2096C232.994 51.7149 228.786 56.4857 229.283 62.1676C230.167 71.3862 231.05 80.6048 231.934 89.8234L265.669 86.237C263.634 77.1398 261.594 68.0427 259.548 58.9456Z" fill="#0C0C0C"/>
<path d="M231.677 89.8524L229.023 62.1966C228.517 56.4194 232.75 51.4788 238.626 50.957L238.672 51.4706C233.069 51.9717 229.06 56.6596 229.561 62.151L232.211 89.8027L231.677 89.8524Z" fill="#0C0C0C"/>
<path d="M243.227 56.3656C242.264 56.3744 241.315 56.1361 240.471 55.6735C239.626 55.211 238.914 54.5395 238.403 53.7234L238.842 53.4501C239.41 54.3628 240.251 55.0738 241.245 55.4825C242.239 55.8912 243.337 55.977 244.383 55.7278L244.486 56.233C244.072 56.3197 243.65 56.3641 243.227 56.3656Z" fill="#0C0C0C"/>
<path d="M235.766 147.656C250.85 132.571 250.85 108.115 235.766 93.0301C220.681 77.9456 196.224 77.9456 181.14 93.0301C166.055 108.115 166.055 132.571 181.14 147.656C196.224 162.74 220.681 162.74 235.766 147.656Z" fill="#5BC0BE"/>
<path d="M232.901 144.792C246.404 131.289 246.404 109.397 232.901 95.894C219.399 82.3913 197.506 82.3913 184.004 95.894C170.501 109.397 170.501 131.289 184.004 144.792C197.506 158.295 219.399 158.295 232.901 144.792Z" fill="#FAFAFA"/>
<path d="M208.233 120.304V96.8926H208.751V119.504L220.528 114.253L220.736 114.729L208.233 120.304Z" fill="#0C0C0C"/>
<path d="M208.453 151.711C202.247 151.711 196.181 149.871 191.022 146.424C185.862 142.976 181.841 138.076 179.466 132.343C177.092 126.61 176.47 120.302 177.681 114.216C178.892 108.13 181.88 102.539 186.268 98.1514C190.655 93.7636 196.246 90.7754 202.332 89.5648C208.418 88.3542 214.726 88.9755 220.459 91.3502C226.192 93.7249 231.092 97.7463 234.54 102.906C237.987 108.065 239.827 114.131 239.827 120.337C239.819 128.655 236.51 136.63 230.628 142.512C224.746 148.394 216.771 151.703 208.453 151.711ZM208.453 89.4838C202.35 89.4838 196.384 91.2936 191.309 94.6844C186.235 98.0752 182.28 102.895 179.944 108.533C177.609 114.172 176.998 120.376 178.189 126.362C179.38 132.348 182.319 137.846 186.635 142.161C190.951 146.477 196.449 149.415 202.435 150.605C208.421 151.796 214.626 151.184 220.264 148.848C225.902 146.512 230.721 142.556 234.111 137.481C237.502 132.406 239.311 126.44 239.31 120.337C239.3 112.157 236.045 104.315 230.261 98.5313C224.476 92.7479 216.633 89.4956 208.453 89.4879V89.4838Z" fill="#0C0C0C"/>
<path d="M231.093 91.9603C231.047 91.8957 231.014 91.8221 230.997 91.7442C230.981 91.6662 230.98 91.5856 230.997 91.5076C231.013 91.4296 231.046 91.3559 231.092 91.2912C231.139 91.2265 231.198 91.1723 231.267 91.132C231.267 91.132 229.847 92.0638 229.482 91.5089C229.192 91.0658 229.673 90.5936 229.673 90.5936C229.673 90.5936 228.455 91.3929 228.091 90.838C227.726 90.283 228.948 89.4838 228.948 89.4838C228.875 89.5318 228.794 89.565 228.708 89.5814C228.622 89.5978 228.534 89.5971 228.449 89.5794C228.363 89.5617 228.282 89.5274 228.21 89.4783C228.138 89.4291 228.076 89.3663 228.029 89.2933C227.519 88.5188 230.427 86.9286 230.427 86.9286C230.427 86.9286 228.874 87.0528 228.77 86.2867C228.633 85.4294 234.568 84.216 234.568 84.216C234.895 84.1787 237.624 87.8811 237.661 88.2082L234.245 90.6102L233.967 90.7924C233.967 90.7924 231.57 92.5194 231.093 91.9603Z" fill="#FFA87C"/>
<path d="M231.243 87.6897L228.583 89.4341L228.867 89.8669L231.527 88.1226L231.243 87.6897Z" fill="#0C0C0C"/>
<path d="M231.97 88.7638L229.311 90.5086L229.595 90.9414L232.254 89.1966L231.97 88.7638Z" fill="#0C0C0C"/>
<path d="M232.694 89.8705L230.921 91.0337L231.205 91.4665L232.978 90.3033L232.694 89.8705Z" fill="#0C0C0C"/>
<path d="M248.913 57.3968C250.156 71.2868 244.072 76.9314 233.715 83.4416C233.615 83.4996 237.525 89.1069 237.624 89.0489C239.417 87.9515 260.816 79.6854 256.136 54.473" fill="#0C0C0C"/>
<path d="M237.616 89.3264C237.425 89.3264 237.135 88.9329 235.761 86.9782C235.007 85.9056 234.021 84.4727 233.64 83.8557C233.479 83.5948 233.338 83.367 233.578 83.2221C244.76 76.2066 249.845 70.5537 248.657 57.4216L249.174 57.3719C250.487 71.8665 243.439 77.6188 234.05 83.5368C234.576 84.4023 237.082 87.9929 237.67 88.7259C237.822 88.6431 238.024 88.5395 238.278 88.4153C256.343 79.4286 257.821 65.0251 255.883 54.5227L256.393 54.4274C258.364 65.1038 256.865 79.7475 238.51 88.8791C238.15 89.0572 237.889 89.1856 237.757 89.2684C237.717 89.3015 237.668 89.3217 237.616 89.3264Z" fill="#0C0C0C"/>
<path d="M197.135 30.5693L219.572 30.5693C227.234 30.5693 233.446 24.3579 233.446 16.6958C233.446 9.03372 227.234 2.82237 219.572 2.82237L197.135 2.82237C189.473 2.82237 183.261 9.03372 183.261 16.6958C183.261 24.3579 189.473 30.5693 197.135 30.5693Z" fill="#5BC0BE"/>
<path d="M224.587 38.5413L222.226 25.2559L211.894 29.6872L224.587 38.5413Z" fill="#5BC0BE"/>
<path d="M223.407 10.3058H215.323V10.8234H223.407V10.3058Z" fill="#0C0C0C"/>
<path d="M223.402 14.3477H193.092V14.8654H223.402V14.3477Z" fill="#0C0C0C"/>
<path d="M200.165 18.3855H193.092V18.9031H200.165V18.3855Z" fill="#0C0C0C"/>
<path d="M223.403 18.3855H203.198V18.9031H223.403V18.3855Z" fill="#0C0C0C"/>
<path d="M223.403 22.4274H203.198V22.9451H223.403V22.4274Z" fill="#0C0C0C"/>
<path d="M108.618 81.5448C108.453 79.6899 107.635 77.9537 106.31 76.6449C104.986 75.3361 103.24 74.5395 101.383 74.3969L70.9814 72.0943L69.8259 86.8996L108.609 88.8212L108.618 81.5448Z" fill="#0C0C0C"/>
<path d="M30.5207 87.9142L40.4765 158.768H135.408L127.585 103.08L125.452 87.9142H30.5207Z" fill="#0C0C0C"/>
<path d="M123.166 103.08H28.2345L30.3673 87.9142H125.299L123.166 103.08Z" fill="#0C0C0C"/>
<path d="M115.339 158.768H20.4073L28.2261 103.158H123.158L115.339 158.768Z" fill="#FAFAFA"/>
<path d="M115.567 159.029H20.109L27.9775 102.898H123.456L123.414 103.196L115.567 159.029ZM20.7053 158.511H115.128L122.872 103.432H28.4496L20.7053 158.511Z" fill="#0C0C0C"/>
<path d="M103.043 130.98H90.5198L92.2385 118.755H104.762L103.043 130.98Z" fill="#5BC0BE"/>
<path d="M76.3153 143.085H63.7919L65.5106 130.856H78.034L76.3153 143.085Z" fill="#5BC0BE"/>
<path d="M51.3511 143.085H38.8277L40.5463 130.856H53.0697L51.3511 143.085Z" fill="#0C0C0C"/>
<path d="M42.4767 119.049H29.4316L31.2206 106.306H44.2699L42.4767 119.049ZM30.0279 118.531H42.0378L43.6943 106.823H31.6844L30.0279 118.531Z" fill="#0C0C0C"/>
<path d="M54.979 119.049H41.9338L43.7228 106.306H56.768L54.979 119.049ZM42.526 118.531H54.5358L56.1924 106.823H44.1825L42.526 118.531Z" fill="#0C0C0C"/>
<path d="M67.4775 119.049H54.4323L56.2255 106.306H69.2707L67.4775 119.049ZM55.0287 118.531H67.0385L68.6951 106.823H56.6852L55.0287 118.531Z" fill="#0C0C0C"/>
<path d="M79.9803 119.049H66.9351L68.7241 106.306H81.7693L79.9803 119.049ZM67.5273 118.531H79.5371L81.1937 106.823H69.1838L67.5273 118.531Z" fill="#0C0C0C"/>
<path d="M92.4829 119.049H79.4336L81.2268 106.306H94.272L92.4829 119.049ZM80.03 118.531H92.0398L93.6964 106.823H81.6865L80.03 118.531Z" fill="#0C0C0C"/>
<path d="M104.986 119.049H91.9406L93.7297 106.306H106.779L104.986 119.049ZM92.537 118.531H104.547L106.203 106.823H94.1935L92.537 118.531Z" fill="#0C0C0C"/>
<path d="M117.484 119.049H104.435L106.228 106.306H119.273L117.484 119.049ZM105.031 118.531H117.041L118.698 106.823H106.688L105.031 118.531Z" fill="#0C0C0C"/>
<path d="M40.766 131.241H27.7166L29.5098 118.494H42.555L40.766 131.241ZM28.313 130.723H40.3228L41.9794 119.011H29.9695L28.313 130.723Z" fill="#0C0C0C"/>
<path d="M53.2646 131.241H40.2194L42.0085 118.494H55.0578L53.2646 131.241ZM40.8158 130.723H52.8256L54.4614 118.995H42.4516L40.8158 130.723Z" fill="#0C0C0C"/>
<path d="M65.7673 131.241H52.7179L54.5111 118.494H67.5563L65.7673 131.241ZM53.3143 130.723H65.3241L66.9807 119.011H54.9708L53.3143 130.723Z" fill="#0C0C0C"/>
<path d="M78.2655 131.241H65.2286L67.0177 118.494H80.067L78.2655 131.241ZM65.8167 130.723H77.8266L79.4831 119.011H67.4732L65.8167 130.723Z" fill="#0C0C0C"/>
<path d="M90.7687 131.241H77.7235L79.5125 118.494H92.5619L90.7687 131.241ZM78.3157 130.723H90.3255L91.9821 119.011H79.9722L78.3157 130.723Z" fill="#0C0C0C"/>
<path d="M115.753 131.241H102.708L104.497 118.494H117.546L115.753 131.241ZM103.329 130.723H115.339L116.995 119.011H104.986L103.329 130.723Z" fill="#0C0C0C"/>
<path d="M39.0516 143.429H26.0065L27.7955 130.682H40.8407L39.0516 143.429ZM26.5987 142.911H38.6085L40.2651 131.199H28.2552L26.5987 142.911Z" fill="#0C0C0C"/>
<path d="M51.5623 143.429H38.5172L40.3104 130.682H53.3555L51.5623 143.429ZM39.1135 142.911H51.1234L52.7799 131.199H40.77L39.1135 142.911Z" fill="#0C0C0C"/>
<path d="M64.0529 143.429H51.0078L52.8051 130.686H65.8503L64.0529 143.429ZM51.6 142.911H63.6098L65.2663 131.199H53.2565L51.6 142.911Z" fill="#0C0C0C"/>
<path d="M76.5551 143.429H63.5058L65.299 130.682H78.3442L76.5551 143.429ZM64.1021 142.911H76.112L77.7685 131.199H65.7587L64.1021 142.911Z" fill="#0C0C0C"/>
<path d="M89.054 143.429H75.9964L77.7854 130.682H90.8347L89.054 143.429ZM76.6051 142.911H88.615L90.2715 131.199H78.2617L76.6051 142.911Z" fill="#0C0C0C"/>
<path d="M101.556 143.429H88.5071L90.3003 130.682H103.329L101.556 143.429ZM89.1034 142.911H101.113L102.77 131.199H90.76L89.1034 142.911Z" fill="#0C0C0C"/>
<path d="M114.055 143.429H101.01L102.803 130.682H115.848L114.055 143.429ZM101.606 142.911H113.616L115.273 131.199H103.263L101.606 142.911Z" fill="#0C0C0C"/>
<path d="M37.3372 155.621H24.2921L26.0811 142.878H39.1387L37.3372 155.621ZM24.8884 155.103H36.8983L38.5548 143.396H26.5449L24.8884 155.103Z" fill="#0C0C0C"/>
<path d="M49.8399 155.621H36.7906L38.5838 142.878H51.629L49.8399 155.621ZM37.387 155.103H49.3968L51.0533 143.396H39.0435L37.387 155.103Z" fill="#0C0C0C"/>
<path d="M62.3301 155.621H49.2849L51.074 142.878H64.1233L62.3301 155.621ZM49.9061 155.103H61.916L63.5725 143.396H51.5626L49.9061 155.103Z" fill="#0C0C0C"/>
<path d="M74.8408 155.621H61.7956L63.5722 142.878H76.6174L74.8408 155.621ZM62.3878 155.103H74.3977L76.0542 143.396H64.0443L62.3878 155.103Z" fill="#0C0C0C"/>
<path d="M87.3393 155.621H74.2942L76.0874 142.878H89.1325L87.3393 155.621ZM74.8905 155.103H86.9004L88.5569 143.396H76.547L74.8905 155.103Z" fill="#0C0C0C"/>
<path d="M99.8421 155.621H86.7969L88.586 142.878H101.635L99.8421 155.621ZM87.3891 155.103H99.399L101.055 143.396H89.0456L87.3891 155.103Z" fill="#0C0C0C"/>
<path d="M112.345 155.621H99.2954L101.089 142.878H114.134L112.345 155.621ZM99.8918 155.103H111.902L113.558 143.396H101.548L99.8918 155.103Z" fill="#0C0C0C"/>
<path d="M81.2145 40.3966L72.3396 42.5046C75.6527 51.7811 84.4944 59.9975 97.0178 61.4884C99.5942 58.6653 101.686 55.4357 103.209 51.9302C92.3629 52.8993 84.3867 47.0642 81.2145 40.3966Z" fill="#0C0C0C"/>
<path d="M83.0367 88.2289H60.3008C53.3475 88.2289 52.0886 83.3588 52.1797 80.1078C52.2708 76.8569 53.5712 67.3442 53.5712 67.3442L83.0367 69.1996V88.2289Z" fill="#FAFAFA"/>
<path d="M83.2975 88.4857H60.3008C57.5509 88.4857 55.4306 87.7361 53.9935 86.2577C52.0926 84.3071 51.8773 81.5614 51.9229 80.0995C52.0098 76.9149 53.3061 67.4064 53.3185 67.3111L53.3516 67.0709L83.3017 68.9594L83.2975 88.4857ZM53.7947 67.6176C53.5918 69.1167 52.5151 77.2379 52.4364 80.112C52.3991 81.4952 52.5979 84.0835 54.3621 85.9098C55.6997 87.2847 57.6959 87.9805 60.3008 87.9805H82.7799V69.4439L53.7947 67.6176Z" fill="#0C0C0C"/>
<path d="M80.0052 115.881L75.077 112.642L81.405 92.9749L88.4452 93.7369L80.0052 115.881Z" fill="#FFA87C"/>
<path d="M84.8461 120.146L72.8114 116.556L75.3998 111.963L85.5212 119.662L84.8461 120.146Z" fill="#FFA87C"/>
<path d="M80.1129 115.545L74.2322 113.528L72.5094 116.717L84.8464 120.146L85.5214 119.662L80.1129 115.545Z" fill="#0C0C0C"/>
<path d="M85.7571 119.732L83.264 117.719L82.618 118.933L72.7823 115.881L72.2232 116.879L85.3595 120.374L85.7571 119.732Z" fill="#0C0C0C"/>
<path d="M80.4151 116.924L79.0194 116.158C79.0194 116.158 79.8933 113.611 80.5724 113.769C81.38 113.947 80.4151 116.924 80.4151 116.924Z" fill="#0C0C0C"/>
<path d="M60.3007 88.229L79.5579 88.6928L73.2672 108.07L86.6313 111.851L95.2038 84.3693C96.7196 79.3251 92.9095 75.9499 89.1244 75.6725L65.8667 73.3699" fill="#FAFAFA"/>
<path d="M86.8051 112.17L72.9399 108.227L79.2057 88.9247L60.2923 88.4691V87.9515L79.8973 88.4236L73.5859 107.888L86.4613 111.54L94.9593 84.2988C95.7296 81.7312 95.0049 79.8966 94.2594 78.8157C93.6642 77.985 92.894 77.2949 92.0032 76.794C91.1124 76.2932 90.1226 75.9937 89.1035 75.9168L65.8417 73.6101L65.8914 73.0965L89.149 75.3991C90.2432 75.4833 91.3056 75.8057 92.2621 76.3437C93.2185 76.8816 94.0458 77.6222 94.686 78.5134C95.4936 79.6895 96.2846 81.6732 95.4521 84.4438L86.8051 112.17Z" fill="#0C0C0C"/>
<path d="M78.9615 109.66L78.4687 109.503L86.536 83.864L63.0961 83.3795C59.6961 83.3795 57.5385 82.779 56.3168 81.4869C54.8507 79.9422 54.9708 77.5982 55.0992 75.1175V74.985C55.2649 71.8086 56.4162 62.3001 56.4286 62.2048L56.9462 62.2587C56.9462 62.3539 55.7825 71.8459 55.621 75.0016V75.1382C55.4926 77.623 55.3808 79.7392 56.6936 81.1224C57.7994 82.2861 59.8949 82.8535 63.1085 82.8535L87.2359 83.3795L78.9615 109.66Z" fill="#0C0C0C"/>
<path d="M72.5135 35.1993H63.1831V39.9908H72.5135V35.1993Z" fill="#FFA87C"/>
<path d="M83.2358 44.9604C83.1281 39.2578 78.436 34.9591 72.7624 35.0543H71.8471C71.784 35.9611 71.4001 36.8158 70.7642 37.4654C70.1283 38.1149 69.2819 38.5169 68.3767 38.5993H68.0744C67.1896 38.6082 66.3369 38.268 65.7012 37.6525C65.0655 37.037 64.6981 36.1957 64.6785 35.3111V35.0377H64.3182C58.657 34.9425 53.5135 39.2412 52.8053 44.9438C51.7368 54.2038 50.5814 72.7528 50.5814 72.7528L83.5381 72.7238C83.4332 63.4749 83.3324 54.2204 83.2358 44.9604Z" fill="#5BC0BE"/>
<path d="M83.2686 63.6916C83.2189 59.0657 83.1734 56.6513 83.1237 54.3322C83.074 52.0131 83.0243 49.5945 82.9787 44.9645C82.9513 43.2337 82.4639 41.5414 81.5665 40.0612C80.6975 38.6325 79.4752 37.4516 78.0174 36.6322C77.2782 36.2146 76.4892 35.8918 75.6693 35.6714C74.8258 35.44 73.9556 35.3203 73.0809 35.3152C72.8035 35.3152 72.5302 35.3152 72.2527 35.3152H72.0829C71.9671 36.2391 71.538 37.0954 70.8673 37.7412C70.1966 38.3871 69.3247 38.7835 68.3971 38.8643C67.9009 38.9104 67.4005 38.8542 66.927 38.699C66.4534 38.5439 66.0168 38.2931 65.6441 37.9623C65.2714 37.6316 64.9705 37.2278 64.7602 36.776C64.5499 36.3242 64.4346 35.8341 64.4214 35.3359C64.4214 35.2448 64.4214 35.1371 64.4214 35.046H64.9391C64.9391 35.1247 64.9391 35.2241 64.9391 35.3028C64.9509 35.7302 65.0502 36.1506 65.2309 36.5381C65.4116 36.9255 65.6698 37.2718 65.9896 37.5556C66.3095 37.8393 66.6841 38.0544 67.0903 38.1876C67.4966 38.3209 67.9258 38.3693 68.3515 38.3301C69.1957 38.2492 69.9839 37.8722 70.5767 37.2658C71.1694 36.6594 71.5284 35.8628 71.5901 35.0171V34.7769H72.232C72.5136 34.7769 72.7911 34.7769 73.0602 34.7769C73.9793 34.7857 74.8935 34.9109 75.7811 35.1496C76.6484 35.3809 77.4833 35.7204 78.2659 36.1601C79.0285 36.5936 79.7338 37.1209 80.3655 37.7296C81.0022 38.337 81.5589 39.0231 82.0221 39.7713C82.4865 40.5316 82.8472 41.3505 83.0947 42.2064C83.3559 43.0945 83.4952 44.014 83.5088 44.9397C83.5544 49.5655 83.6041 51.9799 83.6538 54.2991C83.7034 56.6182 83.749 59.0367 83.7987 63.6667L83.2686 63.6916Z" fill="#0C0C0C"/>
<path d="M53.6123 68.98L53.5833 69.4969L80.5631 71.01L80.5921 70.4931L53.6123 68.98Z" fill="#0C0C0C"/>
<path d="M80.1127 58.8338C78.6263 58.2181 77.041 57.8758 75.433 57.8233V63.2609C78.1456 63.3189 81.0321 63.3727 83.608 63.439C83.4755 61.3849 81.91 59.6745 80.1127 58.8338Z" fill="#FFA87C"/>
<path d="M51.1486 56.9412C47.8894 50.4228 51.2687 40.3303 59.1538 36.2056C59.1538 36.2056 62.4668 40.3469 64.3304 42.0034C53.2193 54.3901 60.3009 57.5583 76.1498 55.3427L76.8497 63.8158C76.8497 63.8158 66.7283 64.7435 63.937 64.3293C58.9881 63.617 53.6003 61.8445 51.1486 56.9412Z" fill="#5BC0BE"/>
<path d="M68.4097 64.8885C62.1977 64.8885 54.3292 63.4928 50.9168 57.0613C48.2456 52.0421 49.4963 43.395 56.2052 37.622L56.5448 38.0361C50.0305 43.6435 48.8005 52.0007 51.3723 56.8377C56.8596 67.1579 74.3981 64.0602 76.5723 63.6295C76.477 62.4409 76.0215 56.9785 75.9138 55.6699C66.8029 57.2891 60.5454 56.407 58.7025 53.243C57.3855 50.9819 58.4043 47.8221 61.7256 43.8588L62.1398 44.1901C59.0213 47.9173 57.9984 50.957 59.1704 52.9821C60.8891 55.9349 67.2253 56.7093 76.1209 55.1066L76.4025 55.0569L76.4273 55.3427C77.1314 63.8241 77.1314 63.8241 77.1314 63.8366V64.0436L76.9284 64.0892C74.1214 64.6307 71.2685 64.8984 68.4097 64.8885Z" fill="#0C0C0C"/>
<path d="M86.1136 45.5277L81.9516 63.1035L70.5795 63.7744L70.3269 65.6049H106.866L111.454 45.5277H86.1136Z" fill="#C6D0D6"/>
<path d="M96.7026 57.6618C96.3979 57.6667 96.0959 57.6042 95.8182 57.479C95.5404 57.3537 95.2938 57.1687 95.0957 56.9371C94.8729 56.6596 94.7131 56.337 94.6273 55.9916C94.5415 55.6462 94.5317 55.2863 94.5988 54.9368C94.8348 53.4832 96.1352 52.2988 97.4977 52.2988C97.8017 52.2946 98.1028 52.3573 98.3798 52.4825C98.6568 52.6078 98.9028 52.7925 99.1004 53.0235C99.3234 53.3001 99.4833 53.622 99.5692 53.9668C99.655 54.3115 99.6646 54.6708 99.5974 55.0197C99.3696 56.4608 98.0692 57.6618 96.7026 57.6618ZM97.4936 52.8165C96.905 52.8586 96.3483 53.0997 95.9148 53.5C95.4813 53.9004 95.1969 54.4363 95.1082 55.0197C95.0549 55.2953 95.0613 55.5791 95.127 55.852C95.1927 56.1249 95.3162 56.3805 95.4892 56.6016C95.6394 56.7753 95.826 56.9139 96.0356 57.0077C96.2453 57.1014 96.4729 57.148 96.7026 57.1442C97.8166 57.1442 98.8851 56.1544 99.0838 54.9368C99.1371 54.6612 99.1307 54.3774 99.065 54.1045C98.9993 53.8316 98.8758 53.576 98.7028 53.3548C98.5542 53.1838 98.3702 53.0471 98.1636 52.9542C97.9569 52.8612 97.7326 52.8142 97.506 52.8165H97.4936Z" fill="#0C0C0C"/>
<path d="M70.5959 64.0312L70.5628 63.5135L81.7444 62.8551L85.8608 45.4698L86.3661 45.5899L82.1585 63.352L70.5959 64.0312Z" fill="#0C0C0C"/>
<path d="M105.967 63.6502C105.971 63.5713 105.991 63.494 106.026 63.4233C106.062 63.3526 106.111 63.2899 106.172 63.2393C106.233 63.1887 106.303 63.1513 106.379 63.1293C106.455 63.1074 106.535 63.1014 106.613 63.1118C106.613 63.1118 104.923 62.9586 104.981 62.2836C105.031 61.7535 105.702 61.6831 105.702 61.6831C105.702 61.6831 104.248 61.5505 104.31 60.8921C104.373 60.2336 105.822 60.362 105.822 60.362C105.735 60.3542 105.651 60.3294 105.574 60.2889C105.497 60.2484 105.428 60.1932 105.372 60.1262C105.317 60.0593 105.275 59.982 105.249 59.8988C105.223 59.8156 105.214 59.7282 105.222 59.6414C105.304 58.7179 108.232 59.1196 109.069 59.7159C110.336 60.6188 109.33 63.9153 108.137 64.5903C107.623 64.8967 105.992 64.3832 105.967 63.6502Z" fill="#FFA87C"/>
<path d="M105.571 60.0911L105.525 60.6067L108.692 60.8922L108.739 60.3766L105.571 60.0911Z" fill="#0C0C0C"/>
<path d="M105.452 61.4102L105.405 61.9258L108.573 62.2112L108.619 61.6957L105.452 61.4102Z" fill="#0C0C0C"/>
<path d="M106.387 62.8245L106.341 63.3401L108.453 63.5304L108.499 63.0148L106.387 62.8245Z" fill="#0C0C0C"/>
<path d="M68.0988 37.9284C68.7086 37.938 69.2986 37.7115 69.7455 37.2963C70.1923 36.8811 70.4614 36.3093 70.4966 35.7004L70.4759 34.4083V27.6703L65.9494 27.6206L65.8666 35.6755C65.8655 36.2698 66.0996 36.8403 66.5179 37.2625C66.9362 37.6846 67.5045 37.924 68.0988 37.9284Z" fill="#FFA87C"/>
<path d="M70.4967 34.9467L64.6616 30.826L70.857 27.1113L70.4967 34.9467Z" fill="#0C0C0C"/>
<path d="M70.7822 33.4143C74.5964 33.3232 76.2612 29.4221 75.9092 25.3305C75.495 20.3609 72.6375 16.2195 67.5893 17.2673C58.3831 19.1889 61.3731 33.6421 70.7822 33.4143Z" fill="#FFA87C"/>
<path d="M68.2108 25.3595C68.2248 25.4474 68.2644 25.5292 68.3248 25.5946C68.3852 25.6601 68.4635 25.7062 68.55 25.7272C68.6365 25.7482 68.7273 25.7432 68.8109 25.7128C68.8946 25.6823 68.9674 25.6278 69.0201 25.5561C69.0729 25.4844 69.1033 25.3988 69.1075 25.3098C69.1117 25.2209 69.0895 25.1328 69.0437 25.0564C68.9979 24.9801 68.9306 24.919 68.8502 24.8808C68.7698 24.8426 68.6799 24.8291 68.5918 24.8418C68.5326 24.8504 68.4757 24.8707 68.4244 24.9014C68.3731 24.9322 68.3285 24.9728 68.293 25.021C68.2576 25.0692 68.232 25.1239 68.2179 25.182C68.2038 25.2401 68.2014 25.3004 68.2108 25.3595Z" fill="#0C0C0C"/>
<path d="M72.9858 25.0903C72.9998 25.1782 73.0395 25.26 73.0998 25.3254C73.1602 25.3909 73.2385 25.437 73.325 25.458C73.4115 25.479 73.5023 25.474 73.586 25.4435C73.6696 25.4131 73.7424 25.3586 73.7952 25.2869C73.8479 25.2152 73.8783 25.1295 73.8825 25.0406C73.8867 24.9517 73.8645 24.8635 73.8187 24.7872C73.773 24.7109 73.7056 24.6498 73.6252 24.6116C73.5448 24.5734 73.4549 24.5598 73.3668 24.5726C73.3076 24.5812 73.2507 24.6015 73.1994 24.6322C73.1482 24.663 73.1035 24.7036 73.068 24.7518C73.0326 24.7999 73.0071 24.8547 72.993 24.9128C72.9788 24.9709 72.9764 25.0312 72.9858 25.0903Z" fill="#0C0C0C"/>
<path d="M67.4571 24.7507L66.9933 24.5229C67.1288 24.218 67.3339 23.949 67.5921 23.7376C67.8502 23.5262 68.1544 23.3782 68.48 23.3054C68.7683 23.2596 69.0633 23.2847 69.3396 23.3785C69.616 23.4723 69.8653 23.632 70.0661 23.8438L69.7059 24.2165C69.5663 24.0594 69.39 23.9394 69.1927 23.8671C68.9954 23.7948 68.7833 23.7726 68.5753 23.8023C68.3286 23.864 68.0995 23.9816 67.9056 24.1461C67.7117 24.3105 67.5582 24.5174 67.4571 24.7507Z" fill="#0C0C0C"/>
<path d="M71.1509 29.095C71.0036 29.0954 70.8566 29.0815 70.7119 29.0536C70.3364 28.9828 69.9792 28.8361 69.6623 28.6225C69.3454 28.4088 69.0755 28.1328 68.869 27.8112L69.308 27.5337C69.4747 27.7956 69.6934 28.0204 69.9506 28.1942C70.2077 28.368 70.4979 28.4872 70.803 28.5442C71.0663 28.5927 71.337 28.5846 71.5969 28.5203C71.8569 28.456 72.1001 28.3371 72.3105 28.1715L72.6252 28.5856C72.2046 28.9155 71.6855 29.0949 71.1509 29.095Z" fill="#0C0C0C"/>
<path d="M71.938 27.6289L71.8593 27.1154L72.5964 27.0036L72.0581 24.0757L72.0912 24.0011C72.1885 23.7505 72.3492 23.5295 72.5575 23.3596C72.7659 23.1898 73.0147 23.0769 73.2798 23.032C73.591 23.0141 73.9018 23.0749 74.1834 23.2088C74.4649 23.3427 74.7082 23.5454 74.8907 23.7982L74.4766 24.1253C74.348 23.9426 74.1766 23.7942 73.9773 23.6932C73.778 23.5921 73.557 23.5414 73.3336 23.5456C73.1679 23.5753 73.0124 23.6463 72.8814 23.7519C72.7504 23.8576 72.6481 23.9946 72.584 24.1502L73.1887 27.4343L71.938 27.6289Z" fill="#0C0C0C"/>
<path d="M62.6901 27.0574L66.2061 22.0878C66.2061 22.0878 75.1472 23.1356 76.7996 20.8454C78.042 19.0812 76.7996 16.0539 72.0081 16.0539C53.6537 16.0332 62.6901 27.0574 62.6901 27.0574Z" fill="#0C0C0C"/>
<path d="M64.62 26.4569C64.5833 26.8289 64.4372 27.1816 64.2003 27.4707C63.9633 27.7598 63.6461 27.9722 63.2886 28.0812C62.9311 28.1902 62.5493 28.191 62.1914 28.0833C61.8335 27.9756 61.5154 27.7644 61.2774 27.4762C61.0394 27.188 60.892 26.8358 60.8539 26.464C60.8157 26.0922 60.8885 25.7174 61.0631 25.3869C61.2377 25.0565 61.5062 24.7851 61.8348 24.607C62.1635 24.4289 62.5374 24.3521 62.9096 24.3863C63.1584 24.4086 63.4003 24.48 63.6213 24.5964C63.8423 24.7128 64.038 24.872 64.1971 25.0645C64.3562 25.2571 64.4755 25.4794 64.5481 25.7184C64.6206 25.9574 64.6451 26.2084 64.62 26.4569Z" fill="#FFA87C"/>
<path d="M64.4419 26.3741C63.3817 26.5273 61.6713 23.0942 61.6713 23.0942C61.6713 22.328 66.3551 20.3195 66.4587 21.0774C66.4711 21.0774 65.531 26.2292 64.4419 26.3741Z" fill="#0C0C0C"/>
<path d="M111.848 97.2322C109.951 97.2322 108.098 96.6699 106.521 95.6165C104.945 94.563 103.716 93.0657 102.99 91.3139C102.265 89.5621 102.075 87.6344 102.445 85.7747C102.814 83.9149 103.728 82.2067 105.068 80.8659C106.409 79.5251 108.117 78.612 109.977 78.2421C111.837 77.8722 113.765 78.062 115.516 78.7876C117.268 79.5133 118.766 80.7421 119.819 82.3187C120.872 83.8953 121.435 85.7489 121.435 87.645H120.917C120.917 85.8513 120.385 84.0978 119.389 82.6063C118.392 81.1148 116.976 79.9524 115.318 79.2659C113.661 78.5795 111.837 78.3999 110.078 78.7498C108.319 79.0997 106.703 79.9635 105.434 81.2319C104.166 82.5003 103.302 84.1164 102.952 85.8757C102.602 87.635 102.782 89.4585 103.468 91.1158C104.155 92.773 105.317 94.1895 106.809 95.1861C108.3 96.1826 110.054 96.7145 111.848 96.7145V97.2322Z" fill="#0C0C0C"/>
<path d="M111.72 98.7397C112.625 98.7397 113.36 98.0054 113.36 97.0997C113.36 96.194 112.625 95.4597 111.72 95.4597C110.814 95.4597 110.08 96.194 110.08 97.0997C110.08 98.0054 110.814 98.7397 111.72 98.7397Z" fill="#0C0C0C"/>
<path d="M36.9605 97.2322C35.0643 97.2322 33.2108 96.6699 31.6342 95.6165C30.0576 94.563 28.8288 93.0657 28.1031 91.3139C27.3775 89.5621 27.1876 87.6344 27.5576 85.7747C27.9275 83.9149 28.8406 82.2067 30.1814 80.8659C31.5221 79.5251 33.2304 78.612 35.0901 78.2421C36.9499 77.8722 38.8775 78.062 40.6294 78.7876C42.3812 79.5133 43.8785 80.7421 44.932 82.3187C45.9854 83.8953 46.5477 85.7489 46.5477 87.645H46.03C46.0308 85.8501 45.4993 84.0952 44.5026 82.6024C43.5058 81.1096 42.0888 79.946 40.4306 79.2587C38.7725 78.5715 36.9477 78.3914 35.1872 78.7414C33.4267 79.0914 31.8096 79.9556 30.5403 81.2249C29.2711 82.4941 28.4068 84.1112 28.0569 85.8717C27.7069 87.6322 27.8869 89.457 28.5742 91.1151C29.2615 92.7733 30.4251 94.1904 31.9179 95.1871C33.4107 96.1838 35.1656 96.7154 36.9605 96.7145V97.2322Z" fill="#0C0C0C"/>
<path d="M36.832 98.7397C37.7378 98.7397 38.472 98.0054 38.472 97.0997C38.472 96.194 37.7378 95.4597 36.832 95.4597C35.9263 95.4597 35.1921 96.194 35.1921 97.0997C35.1921 98.0054 35.9263 98.7397 36.832 98.7397Z" fill="#0C0C0C"/>
<path d="M57.8861 97.4848C55.8867 97.4849 53.9373 96.86 52.3107 95.6973C50.6841 94.5347 49.4617 92.8926 48.8145 91.0008C48.1673 89.1091 48.1278 87.0623 48.7015 85.147C49.2751 83.2316 50.4332 81.5436 52.0137 80.319L52.3326 80.7331C50.8362 81.8911 49.7394 83.4881 49.1958 85.3005C48.6523 87.1128 48.6892 89.0498 49.3013 90.8402C49.9135 92.6305 51.0702 94.1846 52.6097 95.2848C54.1491 96.3849 55.994 96.9761 57.8861 96.9754V97.4848Z" fill="#0C0C0C"/>
<path d="M57.7624 98.9923C58.6681 98.9923 59.4023 98.258 59.4023 97.3523C59.4023 96.4466 58.6681 95.7123 57.7624 95.7123C56.8566 95.7123 56.1224 96.4466 56.1224 97.3523C56.1224 98.258 56.8566 98.9923 57.7624 98.9923Z" fill="#0C0C0C"/>
<path d="M89.3935 31.8034L90.3211 26.577C88.4112 26.0259 86.7651 24.8026 85.6863 23.133C84.6076 21.4633 84.169 19.4598 84.4515 17.4921C84.7341 15.5245 85.7186 13.7254 87.2236 12.4267C88.7286 11.128 90.6525 10.4174 92.6403 10.4259H105.541C107.693 10.4741 109.74 11.3629 111.245 12.9021C112.75 14.4412 113.593 16.5083 113.593 18.6609C113.593 20.8135 112.75 22.8806 111.245 24.4197C109.74 25.9589 107.693 26.8477 105.541 26.8959H96.4048L89.3935 31.8034ZM92.6403 10.956C90.764 10.9559 88.9519 11.6393 87.5428 12.8782C86.1337 14.1172 85.2241 15.827 84.9841 17.6879C84.7441 19.5488 85.19 21.4334 86.2386 22.9893C87.2872 24.5453 88.8665 25.6661 90.6814 26.1422L90.9134 26.2002L90.1224 30.6645L96.2432 26.3907H105.541C107.556 26.344 109.474 25.5104 110.883 24.0682C112.292 22.626 113.081 20.6897 113.081 18.6733C113.081 16.657 112.292 14.7206 110.883 13.2784C109.474 11.8362 107.556 11.0027 105.541 10.956H92.6403Z" fill="#0C0C0C"/>
<path d="M141.226 35.2034C141.321 34.8307 142.99 33.961 145.103 32.8345C146.312 32.1926 147.662 31.4803 149.078 30.6811H135.151C136.356 32.466 137.271 33.845 137.184 34.1929C134.973 43.0388 128.902 45.8383 123.998 48.0912C120.429 49.7477 117.343 51.1516 116.544 54.4067L115.492 58.6102L148.884 66.9591L149.935 62.7515C150.764 59.5006 148.693 56.7963 146.316 53.6696C143.086 49.3833 139.019 44.0368 141.226 35.2034Z" fill="#0C0C0C"/>
<path d="M149.029 67.1786L115.265 58.7427L117.575 49.4786C118.963 43.9292 127.896 39.2164 133.23 36.4002C135.027 35.4519 136.882 34.4745 137.011 34.1474C137.052 33.8078 135.872 32.0767 134.733 30.387C131.349 25.4009 125.692 17.0354 127.067 11.486L129.382 2.20946L163.147 10.6578L160.832 19.9219C159.448 25.4713 150.516 30.1841 145.177 32.9961C143.384 33.9444 141.525 34.9259 141.4 35.2531C141.359 35.5927 142.539 37.3238 143.678 39.0093C147.062 44.0037 152.727 52.3651 151.344 57.9103L149.029 67.1786ZM115.898 58.3658L148.66 66.5491L150.847 57.7861C152.18 52.4645 146.594 44.2232 143.256 39.2992C141.492 36.6984 140.771 35.6217 140.908 35.1206C141.044 34.6195 142.15 34.0066 144.945 32.5405C150.205 29.7658 159.026 25.1193 160.339 19.7977L162.53 11.0346L129.759 2.84722L127.568 11.6103C126.239 16.936 131.826 25.1731 135.159 30.0971C136.924 32.6979 137.644 33.7746 137.512 34.2757C137.379 34.7768 136.269 35.3898 133.474 36.8599C128.214 39.6346 119.393 44.2771 118.081 49.6028L115.898 58.3658Z" fill="#0C0C0C"/>
<path d="M136.265 29.4925C133.499 25.4009 127.763 16.8739 129.121 11.3577L129.622 11.4819C128.301 16.7745 133.971 25.169 136.696 29.2026L136.265 29.4925Z" fill="#0C0C0C"/>
<path d="M164.606 8.91937L128.911 0L127.781 4.52403L163.475 13.4434L164.606 8.91937Z" fill="#5BC0BE"/>
<path d="M150.66 64.7196L114.966 55.8003L113.836 60.3243L149.53 69.2437L150.66 64.7196Z" fill="#5BC0BE"/>
<path d="M157.1 65.257C147.368 65.257 140.535 59.8981 137.284 57.3388C136.766 56.9246 136.36 56.614 136.062 56.4111C135.859 56.2786 135.909 56.1337 136.166 55.6905L133.006 53.6986C132.207 53.2099 130.36 51.9799 130.753 51.193C130.823 51.0608 130.929 50.9514 131.059 50.8783C130.645 50.4932 130.256 49.9589 130.558 49.5075C130.659 49.3609 130.804 49.2505 130.972 49.1928C130.43 48.6213 130.504 48.2196 130.666 47.9835C130.827 47.7475 131.163 47.528 131.908 47.8137C131.913 47.641 131.966 47.473 132.062 47.3292C132.113 47.2537 132.18 47.1899 132.258 47.142C132.335 47.0942 132.422 47.0634 132.513 47.0517C133.122 46.9565 134.17 47.5694 134.853 48.0456C134.745 47.5777 134.745 47.031 135.192 46.7494C135.433 46.6003 136.054 46.211 139.288 50.7913C139.702 50.2116 139.702 50.2033 139.827 50.1826C139.896 50.1703 139.967 50.1852 140.025 50.224C148.631 56.2538 154.864 59.0864 163.151 56.788C163.183 56.7779 163.217 56.7746 163.251 56.7782C163.285 56.7818 163.318 56.7922 163.348 56.8089C163.378 56.8255 163.404 56.848 163.425 56.875C163.446 56.902 163.461 56.933 163.469 56.9661C163.487 57.0319 163.479 57.1022 163.445 57.1619C163.412 57.2215 163.357 57.2657 163.291 57.2849C154.868 59.6206 148.556 56.8087 139.922 50.7831C139.847 50.8949 139.715 51.0771 139.508 51.3918C139.484 51.4275 139.452 51.4569 139.415 51.4771C139.377 51.4973 139.335 51.5079 139.292 51.5078C139.251 51.5077 139.21 51.4974 139.173 51.478C139.136 51.4585 139.105 51.4303 139.081 51.396C137.151 48.6337 135.797 47.1967 135.449 47.1967C135.134 47.4037 135.428 48.261 135.627 48.6461C135.654 48.6989 135.662 48.7592 135.65 48.8172C135.638 48.8751 135.607 48.9273 135.561 48.965C135.515 49.002 135.458 49.0222 135.4 49.0222C135.341 49.0222 135.284 49.002 135.238 48.965C134.497 48.3811 133.126 47.4783 132.604 47.5652C132.53 47.5652 132.509 47.6025 132.501 47.6149C132.442 47.7046 132.421 47.8132 132.441 47.9182C132.461 48.0232 132.521 48.1163 132.608 48.1782C132.645 48.1922 132.679 48.2145 132.706 48.2435C132.734 48.2724 132.754 48.3072 132.766 48.3452C132.777 48.3832 132.78 48.4234 132.774 48.4627C132.768 48.502 132.753 48.5394 132.73 48.5719C132.707 48.6045 132.677 48.6315 132.642 48.6507C132.608 48.6699 132.569 48.6809 132.529 48.6829C132.489 48.6849 132.45 48.6777 132.413 48.662C132.377 48.6463 132.344 48.6225 132.318 48.5923C131.904 48.3231 131.242 48.0456 131.097 48.261C130.952 48.4763 131.242 48.7083 131.353 48.8284C131.51 48.9834 131.682 49.1221 131.867 49.2425C131.921 49.2782 131.96 49.333 131.975 49.396C131.99 49.459 131.981 49.5255 131.95 49.5821C131.919 49.6382 131.869 49.681 131.808 49.7024C131.748 49.7237 131.682 49.7222 131.623 49.698C131.623 49.698 131.208 49.5282 131.018 49.785C130.894 49.9714 131.432 50.5511 131.987 50.9197C132.024 50.9337 132.058 50.9561 132.085 50.985C132.112 51.014 132.133 51.0488 132.144 51.0868C132.156 51.1248 132.159 51.165 132.153 51.2043C132.147 51.2436 132.132 51.2809 132.109 51.3135C132.086 51.3461 132.056 51.373 132.021 51.3923C131.986 51.4115 131.948 51.4225 131.908 51.4245C131.868 51.4264 131.829 51.4193 131.792 51.4036C131.756 51.3879 131.723 51.364 131.697 51.3339C131.654 51.305 131.605 51.2853 131.554 51.276C131.502 51.2668 131.45 51.2681 131.399 51.28C131.335 51.297 131.28 51.3386 131.246 51.396C131.146 51.5989 132.045 52.4603 133.316 53.2347L133.602 53.4252L136.683 55.3551C136.741 55.391 136.782 55.4478 136.798 55.5135C136.814 55.5792 136.804 55.6486 136.77 55.7071C136.667 55.881 136.605 56.0011 136.559 56.0757C136.849 56.2827 137.205 56.5644 137.636 56.9039C141.566 59.9851 150.764 67.2117 163.991 63.8241C164.058 63.8071 164.128 63.8171 164.187 63.8521C164.246 63.887 164.289 63.944 164.306 64.0105C164.323 64.0769 164.313 64.1474 164.278 64.2064C164.243 64.2654 164.186 64.3082 164.12 64.3252C161.829 64.9316 159.47 65.2447 157.1 65.257Z" fill="#0C0C0C"/>
<path d="M177.567 155.882L182.88 153.169L181.849 133.717L174.858 133.746L177.567 155.882Z" fill="#FFA87C"/>
<path d="M171.04 158.366H183.969L182.88 153.169L170.584 157.716L171.04 158.366Z" fill="#FFA87C"/>
<path d="M175.235 155.757C177.438 159.431 183.518 155.795 183.518 155.795L184.073 158.449H170.477L170.34 157.716L175.235 155.757Z" fill="#0C0C0C"/>
<path d="M170.534 143.015H187.021C187.021 143.015 187.725 72.0281 161.97 73.0261L170.534 143.015Z" fill="#0C0C0C"/>
<path d="M183.853 143.015H183.335C183.335 142.505 183.658 92.0762 168.455 77.3124C165.556 74.4839 162.21 73.1172 158.549 73.258V72.7404C162.359 72.5954 165.817 74.0076 168.832 76.9397C184.18 91.8857 183.857 142.518 183.853 143.015Z" fill="#0C0C0C"/>
<path d="M182.648 45.3165C182.52 46.6459 180.163 47.4203 179.749 48.5385C179.265 49.7809 180.441 51.8515 179.65 52.7958C178.821 53.8062 176.399 53.1768 175.281 53.8311C174.162 54.4854 173.711 56.7921 172.382 57.0613C171.052 57.3305 169.619 55.4048 168.24 55.2847C166.861 55.1646 165.035 56.7217 163.834 56.2206C162.633 55.7195 162.592 53.359 161.627 52.4935C160.662 51.6279 158.177 51.7811 157.547 50.6257C156.955 49.5407 158.512 47.7268 158.28 46.4264C158.069 45.2461 155.916 44.0327 156.048 42.6992C156.181 41.3657 158.533 40.5789 158.972 39.4441C159.452 38.2017 158.272 36.1311 159.063 35.1496C159.854 34.1681 162.327 34.7106 163.436 34.0314C164.546 33.3522 164.977 31.029 166.302 30.7184C167.627 30.4078 169.098 32.321 170.489 32.4577C171.881 32.5944 173.728 31.0414 174.933 31.5673C176.138 32.0933 176.13 34.4663 177.103 35.3566C178.076 36.247 180.548 36.1352 181.174 37.3072C181.762 38.4129 180.192 40.2061 180.424 41.5355C180.627 42.7531 182.781 43.9789 182.648 45.3165Z" fill="#0C0C0C"/>
<path d="M158.222 155.882L163.536 153.169L162.5 133.717L155.514 133.746L158.222 155.882Z" fill="#FFA87C"/>
<path d="M151.695 158.366H164.625L163.536 153.169L151.24 157.716L151.695 158.366Z" fill="#FFA87C"/>
<path d="M155.891 155.757C158.094 159.431 164.174 155.795 164.174 155.795L164.729 158.449H151.133L150.992 157.716L155.891 155.757Z" fill="#0C0C0C"/>
<path d="M167.383 143.015H150.896C150.896 143.015 139.715 73.0013 163.714 73.0013L167.383 143.015Z" fill="#0C0C0C"/>
<path d="M167.056 142.969L164.285 88.8211L160.935 87.4586L161.13 86.9824L164.786 88.4691L164.795 88.6306L167.569 142.94L167.056 142.969Z" fill="#0C0C0C"/>
<path d="M146.494 80.9444C150.437 64.7311 157.787 53.0111 168.542 54.7629C179.782 56.5934 182.548 69.9616 181.144 86.5849L146.494 80.9444Z" fill="#FAFAFA"/>
<path d="M137.346 51.0705L136.614 51.8026L138.957 54.1453L139.689 53.4132L137.346 51.0705Z" fill="#5BC0BE"/>
<path d="M147.647 51.0652L146.915 51.7973L149.257 54.14L149.99 53.4079L147.647 51.0652Z" fill="#5BC0BE"/>
<path d="M145.325 45.528L142.982 47.8707L143.714 48.6027L146.057 46.2601L145.325 45.528Z" fill="#5BC0BE"/>
<path d="M137.342 62.1607L136.61 62.8927L138.953 65.2354L139.685 64.5033L137.342 62.1607Z" fill="#5BC0BE"/>
<path d="M147.643 62.1512L146.911 62.8833L149.253 65.226L149.985 64.4939L147.643 62.1512Z" fill="#5BC0BE"/>
<path d="M157.948 62.1501L157.215 62.8821L159.558 65.2248L160.29 64.4927L157.948 62.1501Z" fill="#5BC0BE"/>
<path d="M168.256 62.1696L167.524 62.9017L169.867 65.2444L170.599 64.5123L168.256 62.1696Z" fill="#5BC0BE"/>
<path d="M178.562 62.1684L177.829 62.9005L180.172 65.2432L180.904 64.5111L178.562 62.1684Z" fill="#5BC0BE"/>
<path d="M176.238 56.6176L173.895 58.9602L174.628 59.6923L176.97 57.3496L176.238 56.6176Z" fill="#5BC0BE"/>
<path d="M165.933 56.6187L163.591 58.9614L164.323 59.6935L166.665 57.3508L165.933 56.6187Z" fill="#5BC0BE"/>
<path d="M155.628 56.6116L153.286 58.9543L154.018 59.6864L156.36 57.3437L155.628 56.6116Z" fill="#5BC0BE"/>
<path d="M145.323 56.6128L142.981 58.9555L143.713 59.6875L146.056 57.3449L145.323 56.6128Z" fill="#5BC0BE"/>
<path d="M149.536 74.6805L148.804 75.4126L151.147 77.7553L151.879 77.0232L149.536 74.6805Z" fill="#5BC0BE"/>
<path d="M157.95 73.2431L157.218 73.9752L159.561 76.3179L160.293 75.5858L157.95 73.2431Z" fill="#5BC0BE"/>
<path d="M168.259 73.2585L167.527 73.9906L169.87 76.3333L170.602 75.6012L168.259 73.2585Z" fill="#5BC0BE"/>
<path d="M178.564 73.2615L177.832 73.9936L180.174 76.3363L180.906 75.6042L178.564 73.2615Z" fill="#5BC0BE"/>
<path d="M186.538 67.7024L184.196 70.0451L184.928 70.7772L187.27 68.4345L186.538 67.7024Z" fill="#5BC0BE"/>
<path d="M176.233 67.7036L173.891 70.0463L174.623 70.7784L176.965 68.4357L176.233 67.7036Z" fill="#5BC0BE"/>
<path d="M165.929 67.7048L163.586 70.0475L164.318 70.7795L166.661 68.4369L165.929 67.7048Z" fill="#5BC0BE"/>
<path d="M155.624 67.6976L153.281 70.0403L154.014 70.7724L156.356 68.4297L155.624 67.6976Z" fill="#5BC0BE"/>
<path d="M178.562 84.3422L177.83 85.0743L180.173 87.417L180.905 86.6849L178.562 84.3422Z" fill="#5BC0BE"/>
<path d="M186.541 78.7996L184.198 81.1423L184.93 81.8744L187.273 79.5317L186.541 78.7996Z" fill="#5BC0BE"/>
<path d="M176.237 78.8008L173.894 81.1435L174.626 81.8756L176.969 79.5329L176.237 78.8008Z" fill="#5BC0BE"/>
<path d="M165.931 78.7979L163.588 81.1405L164.321 81.8726L166.663 79.53L165.931 78.7979Z" fill="#5BC0BE"/>
<path d="M155.627 78.7948L153.284 81.1375L154.016 81.8696L156.359 79.5269L155.627 78.7948Z" fill="#5BC0BE"/>
<path d="M145.326 78.796L142.983 81.1387L143.715 81.8708L146.058 79.5281L145.326 78.796Z" fill="#5BC0BE"/>
<path d="M181.377 86.8872L146.176 81.1514L146.242 80.8822C150.772 62.267 158.703 52.8951 168.584 54.5061C173.968 55.3841 177.749 58.9291 179.828 65.0458C181.634 70.3508 182.164 77.6023 181.402 86.6097L181.377 86.8872ZM146.813 80.7331L180.909 86.2784C181.629 77.4739 181.099 70.384 179.339 65.2032C177.327 59.2811 173.678 55.8521 168.501 55.0114C155.696 52.9324 149.435 70.1024 146.813 80.7331Z" fill="#0C0C0C"/>
<path d="M167.027 57.3844C166.739 57.332 166.464 57.2234 166.218 57.0647C165.972 56.9061 165.759 56.7005 165.593 56.4597C165.426 56.219 165.309 55.9477 165.247 55.6616C165.186 55.3754 165.181 55.0799 165.234 54.7919L165.395 53.4832L166.683 46.8571L171.065 47.6564L169.619 55.5829C169.568 55.8717 169.46 56.1474 169.302 56.3944C169.143 56.6413 168.938 56.8546 168.697 57.022C168.456 57.1894 168.185 57.3075 167.898 57.3697C167.611 57.4319 167.315 57.4369 167.027 57.3844Z" fill="#FFA87C"/>
<path d="M164.443 54.3778L171.715 51.0606L166.34 46.2359L164.443 54.3778Z" fill="#0C0C0C"/>
<path d="M165.213 52.4396C161.486 51.6113 160.591 47.47 161.718 43.5275C163.076 38.7442 166.658 35.2075 171.417 37.1912C180.093 40.8066 174.411 54.4481 165.213 52.4396Z" fill="#FFA87C"/>
<path d="M169.272 45.0142C169.231 45.1277 169.148 45.2206 169.039 45.2726C168.93 45.3246 168.805 45.3315 168.692 45.2917C168.608 45.2615 168.535 45.2072 168.482 45.1357C168.429 45.0642 168.398 44.9786 168.394 44.8897C168.389 44.8008 168.411 44.7125 168.457 44.636C168.502 44.5596 168.57 44.4983 168.65 44.4598C168.73 44.4214 168.82 44.4076 168.908 44.4201C168.996 44.4326 169.079 44.4709 169.145 44.5301C169.212 44.5894 169.259 44.6669 169.282 44.7531C169.304 44.8392 169.301 44.9301 169.272 45.0142Z" fill="#0C0C0C"/>
<path d="M164.621 43.8463C164.581 43.9595 164.497 44.052 164.389 44.1037C164.281 44.1553 164.156 44.1618 164.043 44.1218C163.93 44.0817 163.837 43.9983 163.786 43.8899C163.734 43.7816 163.728 43.6572 163.768 43.544C163.787 43.488 163.818 43.4365 163.858 43.3923C163.898 43.3481 163.946 43.3123 163.999 43.2867C164.053 43.2611 164.111 43.2464 164.171 43.2433C164.23 43.2402 164.289 43.2488 164.345 43.2686C164.401 43.2885 164.453 43.3192 164.497 43.359C164.541 43.3987 164.577 43.4468 164.603 43.5005C164.628 43.5541 164.643 43.6123 164.646 43.6716C164.649 43.731 164.641 43.7903 164.621 43.8463Z" fill="#0C0C0C"/>
<path d="M170.124 44.5628C170.067 44.3168 169.955 44.087 169.796 43.891C169.636 43.6951 169.434 43.5381 169.205 43.4322C169.007 43.3627 168.796 43.3426 168.589 43.3736C168.381 43.4046 168.185 43.4859 168.016 43.6103L167.735 43.1755C167.972 43.0064 168.247 42.8974 168.535 42.8578C168.824 42.8181 169.117 42.8489 169.391 42.9477C169.7 43.08 169.974 43.2831 170.19 43.5407C170.405 43.7983 170.558 44.103 170.634 44.4303L170.124 44.5628Z" fill="#0C0C0C"/>
<path d="M166.149 48.1782H166.107C165.768 48.1745 165.434 48.0987 165.126 47.956C164.818 47.8132 164.544 47.6066 164.322 47.3499L164.712 47.0062C164.885 47.2096 165.1 47.3732 165.342 47.4861C165.585 47.599 165.848 47.6585 166.116 47.6605H166.149C166.454 47.6582 166.756 47.5943 167.037 47.4726C167.317 47.351 167.57 47.174 167.78 46.9524L168.157 47.3085C167.898 47.5802 167.586 47.7971 167.241 47.9465C166.896 48.0958 166.525 48.1746 166.149 48.1782Z" fill="#0C0C0C"/>
<path d="M165.18 46.5217L163.975 46.1075L165.192 42.9974C165.159 42.8329 165.085 42.6794 164.977 42.5507C164.869 42.422 164.731 42.3222 164.575 42.2602C164.355 42.2132 164.126 42.2211 163.91 42.2832C163.693 42.3453 163.495 42.4597 163.333 42.6164L163.002 42.2023C163.228 41.9879 163.505 41.8341 163.807 41.7552C164.109 41.6763 164.426 41.6748 164.729 41.7508C164.98 41.846 165.203 42.0048 165.375 42.2116C165.547 42.4185 165.662 42.6664 165.71 42.9311L165.731 43.0098L164.65 45.7845L165.35 46.033L165.18 46.5217Z" fill="#0C0C0C"/>
<path d="M177.405 38.6863C176.08 35.4063 167.52 34.0977 164.588 35.3401C161.063 36.7937 162.016 43.4488 168.033 38.972C167.934 42.3513 171.276 44.6125 173.91 43.6062C168.779 51.9675 175.198 50.7417 175.98 48.9236C176.763 47.1056 178.734 41.9662 177.405 38.6863Z" fill="#0C0C0C"/>
<path d="M151.682 79.0426L151.601 79.554L169.846 82.4306L169.927 81.9193L151.682 79.0426Z" fill="#0C0C0C"/>
<path d="M136.845 45.2793C136.903 45.2277 136.97 45.1884 137.044 45.1637C137.118 45.1391 137.196 45.1296 137.273 45.1358C137.35 45.1419 137.426 45.1637 137.494 45.1998C137.563 45.2358 137.624 45.2854 137.673 45.3455C137.673 45.3455 136.584 44.0369 137.089 43.6227C137.503 43.279 138.021 43.6973 138.021 43.6973C138.021 43.6973 137.077 42.5874 137.578 42.1567C138.079 41.726 139.031 42.8359 139.031 42.8359C138.974 42.7698 138.93 42.6931 138.903 42.61C138.876 42.527 138.865 42.4394 138.872 42.3523C138.879 42.2652 138.904 42.1803 138.944 42.1026C138.984 42.025 139.039 41.9561 139.106 41.8999C139.81 41.2994 141.752 43.9706 141.752 43.9706C141.752 43.9706 141.433 42.4466 142.166 42.2271C142.994 41.9828 144.928 47.7102 144.928 47.7102C145.007 48.0291 141.673 51.2014 141.355 51.28L138.555 48.1782L138.344 47.9256C138.344 47.9256 136.348 45.8093 136.845 45.2793Z" fill="#FFA87C"/>
<path d="M139.052 42.4444L138.658 42.7804L140.723 45.2L141.116 44.864L139.052 42.4444Z" fill="#0C0C0C"/>
<path d="M138.043 43.3152L137.65 43.6511L139.714 46.071L140.107 45.7351L138.043 43.3152Z" fill="#0C0C0C"/>
<path d="M137.726 44.9853L137.332 45.3212L138.708 46.9345L139.101 46.5986L137.726 44.9853Z" fill="#0C0C0C"/>
<path d="M170.7 59.1071C158.877 60.863 152.855 55.6201 145.624 46.7991C145.55 46.708 140.477 51.2883 140.551 51.3794C143.065 54.3197 152.818 73.0717 178.444 64.2714" fill="#FAFAFA"/>
<path d="M137.346 51.0705L136.614 51.8026L138.957 54.1453L139.689 53.4132L137.346 51.0705Z" fill="#5BC0BE"/>
<path d="M147.647 51.0652L146.915 51.7973L149.257 54.14L149.99 53.4079L147.647 51.0652Z" fill="#5BC0BE"/>
<path d="M145.325 45.528L142.982 47.8707L143.714 48.6027L146.057 46.2601L145.325 45.528Z" fill="#5BC0BE"/>
<path d="M137.342 62.1607L136.61 62.8927L138.953 65.2354L139.685 64.5033L137.342 62.1607Z" fill="#5BC0BE"/>
<path d="M147.643 62.1512L146.911 62.8833L149.253 65.226L149.985 64.4939L147.643 62.1512Z" fill="#5BC0BE"/>
<path d="M157.948 62.1501L157.215 62.8821L159.558 65.2248L160.29 64.4927L157.948 62.1501Z" fill="#5BC0BE"/>
<path d="M168.256 62.1696L167.524 62.9017L169.867 65.2444L170.599 64.5123L168.256 62.1696Z" fill="#5BC0BE"/>
<path d="M178.562 62.1684L177.829 62.9005L180.172 65.2432L180.904 64.5111L178.562 62.1684Z" fill="#5BC0BE"/>
<path d="M176.238 56.6176L173.895 58.9602L174.628 59.6923L176.97 57.3496L176.238 56.6176Z" fill="#5BC0BE"/>
<path d="M165.933 56.6187L163.591 58.9614L164.323 59.6935L166.665 57.3508L165.933 56.6187Z" fill="#5BC0BE"/>
<path d="M155.628 56.6116L153.286 58.9543L154.018 59.6864L156.36 57.3437L155.628 56.6116Z" fill="#5BC0BE"/>
<path d="M145.323 56.6128L142.981 58.9555L143.713 59.6875L146.056 57.3449L145.323 56.6128Z" fill="#5BC0BE"/>
<path d="M149.536 74.6805L148.804 75.4126L151.147 77.7553L151.879 77.0232L149.536 74.6805Z" fill="#5BC0BE"/>
<path d="M157.95 73.2431L157.218 73.9752L159.561 76.3179L160.293 75.5858L157.95 73.2431Z" fill="#5BC0BE"/>
<path d="M168.259 73.2585L167.527 73.9906L169.87 76.3333L170.602 75.6012L168.259 73.2585Z" fill="#5BC0BE"/>
<path d="M178.564 73.2615L177.832 73.9936L180.174 76.3363L180.906 75.6042L178.564 73.2615Z" fill="#5BC0BE"/>
<path d="M186.538 67.7024L184.196 70.0451L184.928 70.7772L187.27 68.4345L186.538 67.7024Z" fill="#5BC0BE"/>
<path d="M176.233 67.7036L173.891 70.0463L174.623 70.7784L176.965 68.4357L176.233 67.7036Z" fill="#5BC0BE"/>
<path d="M165.929 67.7048L163.586 70.0475L164.318 70.7795L166.661 68.4369L165.929 67.7048Z" fill="#5BC0BE"/>
<path d="M155.624 67.6976L153.281 70.0403L154.014 70.7724L156.356 68.4297L155.624 67.6976Z" fill="#5BC0BE"/>
<path d="M178.562 84.3422L177.83 85.0743L180.173 87.417L180.905 86.6849L178.562 84.3422Z" fill="#5BC0BE"/>
<path d="M186.541 78.7996L184.198 81.1423L184.93 81.8744L187.273 79.5317L186.541 78.7996Z" fill="#5BC0BE"/>
<path d="M176.237 78.8008L173.894 81.1435L174.626 81.8756L176.969 79.5329L176.237 78.8008Z" fill="#5BC0BE"/>
<path d="M165.931 78.7979L163.588 81.1405L164.321 81.8726L166.663 79.53L165.931 78.7979Z" fill="#5BC0BE"/>
<path d="M155.627 78.7948L153.284 81.1375L154.016 81.8696L156.359 79.5269L155.627 78.7948Z" fill="#5BC0BE"/>
<path d="M145.326 78.796L142.983 81.1387L143.715 81.8708L146.058 79.5281L145.326 78.796Z" fill="#5BC0BE"/>
<path d="M165.942 66.7479C151.518 66.7479 144.121 56.643 141.284 52.7709C140.895 52.2408 140.589 51.8225 140.357 51.5285L140.257 51.4125L140.307 51.2635C140.419 50.957 145.277 46.5672 145.575 46.5216L145.724 46.4926L145.823 46.6127C153.534 56.0177 159.49 60.4862 170.671 58.8297L170.746 59.3432C159.399 61.0246 153.352 56.5519 145.583 47.1221C144.788 47.7516 141.562 50.6671 140.895 51.3587C141.115 51.632 141.384 52.0006 141.723 52.4437C145.277 57.2891 156.077 72.0405 179.115 63.6874L179.289 64.172C174.274 65.9859 169.851 66.7479 165.942 66.7479Z" fill="#0C0C0C"/>
<path d="M286.5 158.313H0.5V158.83H286.5V158.313Z" fill="#0C0C0C"/>
<path d="M262.298 164.781H24.702V165.299H262.298V164.781Z" fill="#0C0C0C"/>
</svg>
