<svg width="256" height="256" viewBox="0 0 256 256" fill="none" xmlns="http://www.w3.org/2000/svg">
<rect width="256" height="256" rx="40" fill="#0C0C0C"/>
<path d="M203.92 56.3374C202.379 45.9815 193.503 38 182.79 38C172.486 38 163.862 45.3683 161.851 55.1458H148.936C146.917 45.3683 138.301 38 127.997 38C117.693 38 109.069 45.3683 107.049 55.1458L94.1427 55.1546C92.1237 45.3771 83.5079 38.0088 73.2039 38.0088C62.4907 38.0088 53.6222 45.9815 52.0813 56.3374C43.9007 59.2023 38 67.0263 38 76.2263V196.93C38 208.547 47.3904 218 58.9295 218H197.07C208.61 218 218 208.547 218 196.93L217.991 76.2263C217.991 67.2109 212.213 59.2556 203.919 56.3374L203.92 56.3374ZM58.9225 63.916H76.7285V55.1546H61.2984C63.0825 50.2659 67.7299 46.7701 73.1952 46.7701C80.1923 46.7701 85.884 52.5 85.884 59.5354C85.884 65.4054 81.9329 70.3557 76.5632 71.845H68.8438V81.7891H77.5467V80.6151C85.8492 78.8803 92.3938 72.2743 94.1256 63.9159H131.521V55.1546H116.091C117.875 50.2658 122.532 46.7701 127.997 46.7701C134.994 46.7701 140.677 52.4999 140.677 59.5354C140.677 65.4054 136.726 70.3557 131.356 71.8449H123.646V81.789H132.348V80.615C140.651 78.8803 147.195 72.2742 148.919 63.9159H186.314V55.1546H170.884C172.668 50.2658 177.325 46.77 182.781 46.77C189.778 46.77 195.47 52.4999 195.47 59.5353C195.47 65.4054 191.519 70.3556 186.149 71.8449H178.438V81.789H187.141V80.615C194.861 79.0029 201.057 73.1766 203.285 65.6507C206.914 67.8323 209.29 71.8099 209.29 76.2256V90.6292H46.7032V76.2256C46.7032 69.4356 52.186 63.916 58.9219 63.916L58.9225 63.916ZM197.063 209.232H58.9225C52.1778 209.232 46.6951 203.712 46.6951 196.922L46.7038 99.3914H209.298V196.922C209.289 203.712 203.807 209.232 197.062 209.232H197.063Z" fill="#FAFAFA"/>
<path d="M65.8124 142.005H97.7163V112.313H65.8124V142.005ZM74.5152 121.075H89.0142V133.236L74.5152 133.244V121.075Z" fill="#FAFAFA"/>
<path d="M112.53 170.296H144.434L144.443 140.603H112.53L112.53 170.296ZM121.233 149.366H135.732V161.526H121.233V149.366Z" fill="#FAFAFA"/>
<path d="M158.29 197.552H190.194V167.869H158.29V197.552ZM166.993 176.63H181.492V188.79H166.993V176.63Z" fill="#FAFAFA"/>
<path d="M158.29 142.005H190.194V112.313H158.29V142.005ZM166.993 121.075H181.492V133.236H166.993V121.075Z" fill="#FAFAFA"/>
<path d="M65.8124 197.552H97.7163V167.869H65.8124V197.552ZM74.5152 176.63H89.0142V188.79H74.5152V176.63Z" fill="#FAFAFA"/>
</svg>
