<svg width="623" height="154" viewBox="0 0 623 154" fill="none" xmlns="http://www.w3.org/2000/svg">
<path d="M138.267 15.1792C136.983 6.6069 129.586 0 120.658 0C112.071 0 104.885 6.09927 103.209 14.1928H92.4467C90.7641 6.09927 83.5843 0 74.9977 0C66.411 0 59.2242 6.09927 57.5409 14.1928L46.7856 14.2001C45.103 6.10652 37.9232 0.00725238 29.3366 0.00725238C20.4089 0.00725238 13.0185 6.60688 11.7344 15.1791C4.91723 17.5507 0 24.0271 0 31.6426V131.558C0 141.174 7.82529 148.999 17.4413 148.999H132.559C142.175 148.999 150 141.174 150 131.558L149.993 31.6426C149.993 24.18 145.177 17.5947 138.266 15.1791L138.267 15.1792ZM17.4354 21.4525H32.2737V14.2001H19.4153C20.9021 10.1533 24.7749 7.25965 29.3293 7.25965C35.1603 7.25965 39.9033 12.0027 39.9033 17.8264C39.9033 22.6854 36.6108 26.7831 32.136 28.0159H25.7032V36.2473H32.9556V35.2755C39.8744 33.8396 45.3282 28.3713 46.7714 21.4525H77.9345V14.2001H65.0761C66.5629 10.1533 70.443 7.25962 74.9974 7.25962C80.8284 7.25962 85.5641 12.0026 85.5641 17.8263C85.5641 22.6854 82.2716 26.7831 77.7968 28.0159H71.3713V36.2473H78.6236V35.2755C85.5424 33.8395 90.9962 28.3712 92.4322 21.4524H123.595V14.2001H110.737C112.224 10.1533 116.104 7.25959 120.651 7.25959C126.482 7.25959 131.225 12.0026 131.225 17.8263C131.225 22.6854 127.932 26.7831 123.458 28.0158H117.032V36.2473H124.284V35.2755C130.717 33.941 135.881 29.1182 137.738 22.8885C140.762 24.6943 142.742 27.9869 142.742 31.6421V43.5649H7.25268V31.6421C7.25268 26.0215 11.8216 21.4525 17.4349 21.4525L17.4354 21.4525ZM132.553 141.741H17.4354C11.8148 141.741 7.24588 137.172 7.24588 131.551L7.25313 50.818H142.748V131.551C142.741 137.172 138.172 141.741 132.552 141.741H132.553Z" fill="#FAFAFA"/>
<path d="M23.177 86.0923H49.7636V61.5139H23.177V86.0923ZM30.4294 68.7671H42.5119V78.8333L30.4294 78.8405V68.7671Z" fill="#FAFAFA"/>
<path d="M62.1084 109.51H88.695L88.7023 84.9319H62.1079L62.1084 109.51ZM69.3608 92.1851H81.4433V102.251H69.3608V92.1851Z" fill="#FAFAFA"/>
<path d="M100.242 132.073H126.828V107.502H100.242V132.073ZM107.494 114.754H119.577V124.82H107.494V114.754Z" fill="#FAFAFA"/>
<path d="M100.242 86.0923H126.828V61.5139H100.242V86.0923ZM107.494 68.7671H119.577V78.8333H107.494V68.7671Z" fill="#FAFAFA"/>
<path d="M23.177 132.073H49.7636V107.502H23.177V132.073ZM30.4294 114.754H42.5119V124.82H30.4294V114.754Z" fill="#FAFAFA"/>
<path d="M254.422 57.8034C254.422 62.5821 253.27 67.0621 250.965 71.2434C248.747 75.4248 245.206 78.7954 240.342 81.3554C235.563 83.9154 229.504 85.1954 222.166 85.1954H207.19V119.499H189.27V30.1554H222.166C229.078 30.1554 234.966 31.3501 239.83 33.7394C244.694 36.1288 248.32 39.4141 250.71 43.5954C253.184 47.7767 254.422 52.5127 254.422 57.8034ZM221.398 70.7314C226.347 70.7314 230.016 69.6221 232.406 67.4034C234.795 65.0994 235.99 61.8994 235.99 57.8034C235.99 49.0994 231.126 44.7474 221.398 44.7474H207.19V70.7314H221.398ZM285.065 24.7794V119.499H267.145V24.7794H285.065ZM298.161 83.7874C298.161 76.6194 299.569 70.2621 302.385 64.7154C305.287 59.1687 309.17 54.9021 314.034 51.9154C318.983 48.9288 324.487 47.4354 330.546 47.4354C335.836 47.4354 340.444 48.5021 344.37 50.6354C348.38 52.7688 351.58 55.4568 353.97 58.6994V48.5874H372.018V119.499H353.97V109.131C351.666 112.459 348.466 115.233 344.37 117.451C340.359 119.585 335.708 120.651 330.418 120.651C324.444 120.651 318.983 119.115 314.034 116.043C309.17 112.971 305.287 108.662 302.385 103.115C299.569 97.4834 298.161 91.0408 298.161 83.7874ZM353.97 84.0434C353.97 79.6914 353.116 75.9794 351.41 72.9074C349.703 69.7501 347.399 67.3608 344.498 65.7394C341.596 64.0328 338.482 63.1794 335.154 63.1794C331.826 63.1794 328.754 63.9901 325.938 65.6114C323.122 67.2328 320.818 69.6221 319.026 72.7794C317.319 75.8514 316.466 79.5208 316.466 83.7874C316.466 88.0541 317.319 91.8088 319.026 95.0514C320.818 98.2088 323.122 100.641 325.938 102.347C328.839 104.054 331.911 104.907 335.154 104.907C338.482 104.907 341.596 104.097 344.498 102.475C347.399 100.769 349.703 98.3794 351.41 95.3074C353.116 92.1501 353.97 88.3954 353.97 84.0434ZM428.816 47.5634C437.264 47.5634 444.09 50.2514 449.296 55.6274C454.501 60.9181 457.104 68.3421 457.104 77.8994V119.499H439.184V80.3314C439.184 74.6994 437.776 70.3901 434.96 67.4034C432.144 64.3314 428.304 62.7954 423.44 62.7954C418.49 62.7954 414.565 64.3314 411.664 67.4034C408.848 70.3901 407.44 74.6994 407.44 80.3314V119.499H389.52V48.5874H407.44V57.4194C409.829 54.3474 412.858 51.9581 416.528 50.2514C420.282 48.4594 424.378 47.5634 428.816 47.5634ZM483.233 40.1394C480.075 40.1394 477.43 39.1581 475.297 37.1954C473.249 35.1474 472.225 32.6301 472.225 29.6434C472.225 26.6567 473.249 24.1821 475.297 22.2194C477.43 20.1714 480.075 19.1474 483.233 19.1474C486.39 19.1474 488.993 20.1714 491.041 22.2194C493.174 24.1821 494.241 26.6567 494.241 29.6434C494.241 32.6301 493.174 35.1474 491.041 37.1954C488.993 39.1581 486.39 40.1394 483.233 40.1394ZM492.065 48.5874V119.499H474.145V48.5874H492.065ZM542.282 63.3074H529.866V119.499H511.69V63.3074H503.626V48.5874H511.69V45.0034C511.69 36.2994 514.164 29.8994 519.114 25.8034C524.063 21.7074 531.53 19.7874 541.514 20.0434V35.1474C537.162 35.0621 534.132 35.7874 532.426 37.3234C530.719 38.8594 529.866 41.6328 529.866 45.6434V48.5874H542.282V63.3074ZM621.735 48.5874L577.831 153.035H558.759L574.119 117.707L545.703 48.5874H565.799L584.103 98.1234L602.663 48.5874H621.735Z" fill="#FAFAFA"/>
</svg>
